<svg xmlns="http://www.w3.org/2000/svg" xmlns:xlink="http://www.w3.org/1999/xlink" width="500" zoomAndPan="magnify" viewBox="0 0 375 374.999991" height="500" preserveAspectRatio="xMidYMid meet" version="1.0"><defs><clipPath id="cd010d9e6b"><path d="M 14.59375 23.671875 L 321 23.671875 L 321 215 L 14.59375 215 Z M 14.59375 23.671875 " clip-rule="nonzero"/></clipPath><clipPath id="0529837bdf"><path d="M 147 115 L 226 115 L 226 351.421875 L 147 351.421875 Z M 147 115 " clip-rule="nonzero"/></clipPath><clipPath id="236d8ece2e"><path d="M 213 137 L 360.34375 137 L 360.34375 234 L 213 234 Z M 213 137 " clip-rule="nonzero"/></clipPath><clipPath id="119f575c67"><path d="M 108.828125 348.703125 L 258.828125 348.703125 L 258.828125 353.953125 L 108.828125 353.953125 Z M 108.828125 348.703125 " clip-rule="nonzero"/></clipPath></defs><g clip-path="url(#cd010d9e6b)"><path fill="#010101" d="M 151.613281 164.519531 C 151.734375 164.632812 150.777344 167.523438 152.363281 167.382812 C 152.800781 167.34375 159.363281 163.476562 159.359375 163.0625 C 157.625 161.679688 149.957031 155.15625 151.613281 161.285156 C 149.546875 161.34375 147.378906 161.367188 145.972656 159.65625 C 145.695312 159.320312 145.550781 158.507812 145.429688 158.429688 C 145.015625 158.164062 143.523438 158.496094 142.894531 158.378906 C 142.878906 160.546875 143.796875 162.207031 145.800781 163.0625 C 144.105469 164.519531 142.957031 165.976562 142.597656 168.257812 C 142.421875 169.394531 143.121094 171.375 141.765625 171.625 C 141.101562 171.746094 135.746094 171.691406 135.449219 171.484375 C 134.753906 171 135.898438 167.757812 133.511719 165.992188 C 132.257812 165.0625 129.449219 164.804688 127.867188 164.820312 C 126.949219 164.828125 126.148438 165.171875 125.308594 165.175781 C 117.148438 165.230469 106.988281 164.386719 99.125 165.148438 C 97.195312 165.332031 95.4375 166.558594 95.125 168.574219 C 94.871094 170.214844 94.871094 176.265625 95.125 177.902344 C 95.398438 179.6875 97.734375 181.640625 99.460938 181.640625 L 114.15625 181.640625 C 113.839844 183.070312 110.753906 186.621094 110.648438 187.671875 C 110.496094 189.152344 113.003906 188.945312 113.832031 188.425781 C 113.441406 192.96875 114.359375 198.367188 113.839844 202.804688 C 113.789062 203.242188 113.421875 204.578125 113.027344 204.578125 L 105.113281 204.578125 C 105.367188 203.496094 106.078125 201.601562 104.304688 201.640625 C 103.09375 201.664062 98.292969 205.515625 97.6875 204.898438 C 98.054688 201.632812 97.023438 198.453125 93.34375 198.097656 C 83.265625 197.128906 71.621094 198.84375 61.375 198.132812 C 58.210938 199.140625 57.738281 202.296875 57.640625 205.222656 C 57.425781 205.53125 51.730469 201.664062 51.019531 201.675781 C 49.070312 201.710938 50.578125 204.601562 49.6875 204.851562 L 36.332031 204.578125 L 36.332031 175.179688 C 42.53125 176.417969 36.707031 170.882812 36.007812 168.394531 L 50.054688 168.394531 C 52.179688 168.394531 54.496094 166.132812 54.746094 164.039062 C 54.960938 162.25 54.945312 156.539062 54.519531 154.882812 C 54.144531 153.433594 52.171875 151.59375 50.703125 151.59375 L 36.007812 151.59375 C 36.96875 149.277344 42.335938 143.40625 36.332031 144.808594 L 36.332031 139.964844 L 84.769531 139.964844 C 84.515625 141.085938 83.796875 142.902344 85.570312 142.894531 C 86.699219 142.890625 91.847656 139.242188 92.195312 139.640625 C 92.097656 144.359375 93.234375 146.71875 98.15625 147.085938 C 107.898438 147.808594 118.601562 146.585938 128.441406 146.988281 C 132.136719 146.421875 132.910156 143.230469 132.558594 139.960938 C 135.496094 139.625 141.636719 140.421875 142.234375 144.019531 C 142.539062 145.863281 141.597656 149.066406 143.230469 150.453125 C 143.398438 150.597656 144.898438 151.269531 144.996094 151.269531 L 156.78125 151.269531 L 156.78125 148.683594 L 145.152344 148.363281 C 145.398438 144.667969 145.0625 139.867188 140.957031 138.667969 C 143.503906 136.484375 144.863281 135.300781 145.167969 131.738281 C 145.796875 124.414062 144.675781 116.207031 145.15625 108.789062 C 144.953125 107.476562 143.246094 108.097656 142.25 107.980469 L 142.25 133.339844 C 142.25 133.546875 141.511719 134.382812 141.289062 134.640625 C 139.398438 136.832031 135.285156 137.0625 132.558594 137.058594 C 132.972656 134.253906 131.960938 131.554688 129.152344 130.613281 L 96.226562 130.585938 C 92.679688 131.015625 92.074219 134.746094 92.195312 137.703125 C 91.851562 138.179688 82.4375 130.144531 84.769531 137.054688 L 36.816406 137.054688 C 36.191406 137.054688 35.539062 133.503906 36.492188 133.503906 L 72.984375 133.503906 C 73.195312 133.503906 74.664062 132.773438 74.90625 132.519531 C 75.34375 132.0625 76.050781 129.714844 76.050781 129.140625 L 76.050781 117.671875 L 89.453125 117.671875 C 89.710938 117.671875 91.832031 117.027344 92.171875 116.839844 C 94.210938 115.714844 94.3125 113.148438 94.453125 111.046875 C 94.675781 107.773438 95.003906 102.632812 91.234375 101.351562 C 91.007812 101.273438 89.238281 100.871094 89.128906 100.871094 L 75.726562 100.871094 C 76.535156 98.285156 82.125 92.976562 75.730469 94.410156 C 75.539062 94.214844 76.085938 91.960938 76.855469 92.144531 L 120.453125 92.152344 C 123.425781 91.816406 124.550781 89.875 126.421875 87.949219 C 126.855469 89.816406 129.25 91.847656 131.128906 92.128906 L 165.964844 92.179688 C 167.070312 92.160156 167.605469 93.316406 167.738281 94.269531 C 168.050781 96.496094 167.945312 101.601562 167.757812 103.9375 C 167.722656 104.332031 167.511719 106.269531 167.433594 106.363281 C 167.316406 106.507812 164.230469 105.195312 164.574219 107.421875 C 164.628906 107.78125 167.972656 113.121094 168.375 113.597656 C 168.640625 113.910156 168.773438 113.886719 169.152344 113.746094 C 169.742188 113.53125 173.578125 107.75 173.566406 107.164062 C 173.535156 105.5625 171.3125 106.15625 170.34375 106.363281 C 169.890625 105.875 170.628906 94.964844 170.324219 92.976562 C 169.882812 90.132812 167.175781 89.421875 164.703125 89.230469 C 153.902344 88.386719 142.03125 89.890625 131.117188 89.234375 C 129.203125 88.871094 127.585938 84.480469 127.519531 82.800781 C 127.507812 82.523438 127.660156 82.132812 127.878906 82.132812 L 142.410156 82.132812 C 143.390625 82.132812 145.363281 80.21875 145.65625 79.242188 C 145.996094 78.089844 145.996094 70.109375 145.726562 68.800781 C 145.515625 67.765625 143.707031 65.660156 142.734375 65.660156 L 127.394531 65.660156 C 127.878906 62.890625 134.054688 57.480469 127.398438 58.871094 C 127.785156 56.921875 126.257812 53.085938 128.871094 52.757812 L 182.453125 52.738281 C 183.957031 52.574219 185.265625 51.78125 186.464844 50.933594 C 187.433594 50.738281 187.875 48.015625 188.585938 48.210938 C 188.753906 48.257812 189.742188 50.476562 190.519531 51.125 C 191.367188 51.832031 193.300781 52.613281 194.398438 52.738281 L 246.871094 52.902344 C 247.066406 53.082031 247.84375 53.777344 247.84375 53.867188 L 247.84375 58.875 C 241.667969 57.199219 247.257812 63.394531 248.167969 65.65625 L 232.183594 65.65625 C 232.0625 65.65625 230.621094 66.5625 230.390625 66.773438 C 228.625 68.410156 228.722656 70.859375 228.789062 73.085938 C 226.222656 72.636719 219.71875 66.023438 221.042969 72.441406 C 218.085938 72.507812 215.109375 72.363281 212.148438 72.429688 C 207.890625 72.523438 202.929688 72.15625 198.925781 72.445312 C 197.164062 72.574219 193.269531 73.085938 193.269531 75.511719 L 193.269531 100.871094 L 196.175781 100.871094 L 196.175781 75.671875 C 196.496094 75.777344 196.878906 75.351562 196.984375 75.351562 L 221.042969 75.351562 C 220.136719 80.714844 223.089844 77.808594 225.554688 76.472656 C 225.992188 76.238281 228.625 74.84375 228.789062 75.027344 C 228.738281 77.28125 228.648438 79.652344 230.566406 81.164062 C 230.796875 81.34375 232.089844 82.132812 232.183594 82.132812 L 247.84375 82.132812 C 247.652344 84.535156 246.808594 88.609375 244.058594 89.167969 C 230.164062 89.636719 216.121094 88.582031 202.308594 89.722656 C 200.898438 89.929688 199.40625 92.382812 199.40625 93.601562 L 199.40625 105.394531 C 198.34375 104.882812 196.390625 104.367188 196.492188 106.175781 C 196.550781 107.203125 200.019531 111.808594 200.90625 112.800781 C 201.550781 112.910156 205.398438 107.101562 205.5 106.453125 C 205.761719 104.753906 203.445312 104.933594 202.316406 105.394531 C 202.765625 101.933594 201.695312 96.863281 202.320312 93.609375 C 202.488281 92.734375 203.289062 92.324219 204.109375 92.167969 L 243.808594 92.152344 C 246.402344 91.859375 248.164062 90.15625 249.296875 87.945312 C 250.429688 90.15625 252.191406 91.859375 254.785156 92.152344 L 298.035156 92.183594 C 299.660156 92.390625 299.171875 92.953125 299.1875 94.410156 C 293.238281 92.6875 298.714844 98.589844 299.511719 100.871094 L 283.679688 101.347656 C 280.558594 102.523438 280.242188 105.664062 280.457031 108.625 C 277.722656 108.042969 271.210938 101.484375 272.710938 108.300781 L 236.703125 108.304688 C 235.246094 108.089844 233.3125 110.117188 233.3125 111.371094 L 233.3125 138.347656 L 235.894531 138.347656 L 235.894531 112.339844 C 235.894531 112.253906 236.277344 111.230469 236.421875 111.191406 C 248.558594 111.523438 260.632812 110.605469 272.707031 111.210938 C 272.398438 112.257812 272.179688 114.238281 273.785156 114.035156 C 274.707031 113.917969 280.050781 110.105469 280.457031 110.566406 C 279.988281 113.105469 281.394531 117.671875 284.496094 117.671875 L 299.1875 117.671875 L 299.1875 125.585938 C 299.1875 125.695312 298.761719 126.078125 298.867188 126.394531 L 257.046875 126.394531 C 255.851562 126.394531 254.304688 128.023438 254.304688 129.140625 L 254.304688 135.761719 L 257.210938 135.761719 L 257.210938 129.300781 L 299.027344 129.300781 C 300.464844 129.300781 302.09375 126.886719 302.09375 125.585938 L 302.09375 117.671875 L 316.789062 117.671875 C 317.523438 117.671875 319.402344 116.238281 319.859375 115.574219 C 321.125 113.726562 321.050781 108.480469 320.820312 106.207031 C 320.59375 103.960938 319.519531 101.636719 317.089844 101.214844 C 312.195312 100.363281 307.046875 101.769531 302.089844 101.039062 C 301.515625 100.621094 302.035156 100.570312 302.226562 100.199219 C 303.414062 97.925781 307.863281 92.878906 302.097656 94.410156 C 302.425781 90.648438 300.5 89.496094 297.101562 89.230469 L 254.484375 89.222656 C 251.832031 88.804688 250.894531 84.378906 250.75 82.132812 L 266.089844 82.132812 C 267.230469 82.132812 269.089844 79.78125 269.335938 78.597656 C 269.695312 76.894531 269.691406 70.886719 269.335938 69.195312 C 269.089844 68.023438 267.234375 65.65625 266.089844 65.65625 L 250.429688 65.65625 C 251.03125 63.195312 256.996094 57.605469 250.753906 58.871094 C 250.890625 54.484375 251.179688 50.300781 245.757812 49.816406 L 194.097656 49.808594 C 190.511719 49.257812 189.972656 43.351562 190.042969 40.457031 L 204.734375 40.457031 C 206.015625 40.457031 208.078125 38.316406 208.46875 37.085938 C 209.054688 35.234375 208.988281 28.992188 208.375 27.125 C 207.773438 25.304688 206.390625 24.039062 204.429688 23.964844 C 194.246094 24.714844 182.78125 23.027344 172.753906 23.96875 C 170.5625 24.175781 168.859375 25.542969 168.484375 27.773438 C 168.199219 29.460938 168.207031 34.03125 168.40625 35.773438 C 168.601562 37.527344 170.128906 40.457031 172.121094 40.457031 L 187.136719 40.457031 C 186.453125 43.714844 186.699219 48.382812 183.03125 49.761719 L 129.175781 49.832031 C 126.832031 49.847656 124.488281 51.746094 124.488281 54.1875 L 124.488281 58.875 C 123.625 58.480469 122.515625 58.277344 121.71875 58.851562 C 120.804688 60.109375 124.804688 64.011719 124.8125 65.65625 L 109.152344 65.65625 C 108.011719 65.65625 106.152344 68.011719 105.902344 69.195312 C 105.519531 71.015625 105.546875 77.632812 106.179688 79.289062 C 106.597656 80.378906 108.3125 82.132812 109.472656 82.132812 L 124.488281 82.132812 C 124.777344 84.433594 123.3125 88.816406 120.757812 89.222656 L 77.492188 89.230469 C 73.933594 89.53125 73.113281 90.957031 72.820312 94.410156 C 72.125 93.683594 70.082031 93.886719 69.996094 94.890625 C 69.917969 95.777344 73.824219 100.535156 73.144531 101.195312 C 68.03125 101.535156 62.90625 100.414062 57.824219 101.210938 C 56.90625 101.355469 55.542969 102.546875 55.105469 103.339844 C 54.019531 105.300781 54.269531 112.257812 54.804688 114.535156 C 55.113281 115.84375 57.515625 117.671875 58.773438 117.671875 L 73.144531 117.671875 L 73.144531 129.464844 C 73.144531 129.636719 72.644531 130.183594 72.820312 130.59375 L 35.523438 130.59375 C 35.332031 130.59375 34.253906 131.453125 34.0625 131.71875 C 33.242188 132.859375 33.289062 135.484375 33.441406 136.875 C 33.519531 137.550781 34.125 138.054688 34.074219 138.808594 C 34.035156 139.367188 33.507812 139.863281 33.441406 140.464844 C 33.289062 141.863281 33.519531 143.394531 33.421875 144.808594 C 33.324219 144.925781 31.246094 143.960938 30.660156 144.789062 C 29.605469 146.265625 33.402344 150.003906 33.75 151.59375 L 18.734375 151.59375 C 17.367188 151.59375 15.289062 153.449219 14.917969 154.882812 C 14.5 156.492188 14.464844 163.59375 14.941406 165.078125 C 15.496094 166.789062 17.585938 168.394531 19.378906 168.394531 L 33.75 168.394531 C 33.324219 170.90625 27.160156 176.40625 33.425781 175.179688 L 33.414062 203.460938 C 33.472656 205.148438 34.363281 207.175781 36.1875 207.464844 C 38.253906 207.792969 49.679688 207.035156 50.214844 207.488281 C 49.886719 208.425781 49.425781 210.597656 51.027344 210.59375 C 51.742188 210.59375 57.550781 206.695312 57.964844 207.164062 C 57.703125 210.230469 57.917969 213.386719 61.378906 214.25 L 94.277344 214.25 C 97.53125 213.128906 98.023438 210.308594 97.6875 207.164062 C 98.308594 206.46875 107.488281 214.550781 105.113281 207.488281 C 110.628906 206.960938 116.257812 209.78125 116.734375 202.148438 C 116.832031 200.546875 116.414062 199.328125 116.402344 197.96875 C 116.375 194.789062 116.449219 191.601562 116.417969 188.425781 C 116.636719 188.191406 119.523438 189.613281 119.664062 187.933594 C 119.769531 186.660156 116.597656 183.09375 116.09375 181.640625 L 129.816406 181.640625 C 129.953125 181.640625 131.984375 181.246094 132.25 181.167969 C 135.238281 180.269531 135.359375 177.144531 135.144531 174.53125 C 137.207031 174.09375 143.042969 174.75 144.359375 173.570312 C 146.660156 171.511719 143.925781 167.464844 147.566406 165.476562 C 148.195312 165.132812 151.234375 164.15625 151.613281 164.519531 Z M 96.949219 133.25 L 128.132812 133.25 C 128.859375 133.480469 129.496094 133.835938 129.648438 134.640625 C 129.820312 135.527344 129.804688 142.210938 129.585938 142.964844 C 129.410156 143.585938 128.566406 144.210938 127.898438 144.179688 L 96.375 144.019531 C 96.074219 143.914062 95.785156 143.78125 95.601562 143.503906 C 94.910156 142.464844 94.144531 133.367188 96.949219 133.25 Z M 316.394531 103.847656 C 317.304688 104.058594 317.757812 104.679688 317.898438 105.578125 C 318.09375 106.828125 318.105469 112.070312 317.847656 113.242188 C 317.671875 114.039062 317.039062 114.824219 316.15625 114.78125 L 284.226562 114.710938 C 283.96875 114.644531 283.851562 114.453125 283.710938 114.257812 C 283.171875 113.496094 283.148438 105.289062 283.664062 104.5625 C 283.875 104.269531 284.519531 103.929688 284.886719 103.847656 Z M 265.300781 68.386719 C 266.070312 68.660156 266.429688 69.246094 266.554688 70.039062 C 266.722656 71.105469 266.753906 77.160156 266.503906 78.027344 C 266.328125 78.648438 265.484375 79.273438 264.8125 79.242188 L 232.558594 79.171875 C 232.226562 79.066406 232.074219 78.796875 231.9375 78.503906 C 231.59375 77.769531 231.507812 70.726562 231.707031 69.703125 C 231.894531 68.726562 232.691406 68.539062 233.550781 68.320312 Z M 171.953125 37.394531 C 171.648438 37.121094 171.46875 36.742188 171.382812 36.347656 C 171.152344 35.273438 171.109375 29.109375 171.320312 28.027344 C 171.492188 27.140625 172.121094 26.9375 172.90625 26.707031 C 182.589844 27.113281 193.59375 25.6875 203.136719 26.550781 C 203.777344 26.609375 205.035156 26.847656 205.457031 27.296875 C 206.039062 27.917969 206 33.9375 205.863281 35.128906 C 205.777344 35.914062 205.511719 37.238281 204.671875 37.488281 Z M 109.527344 79.171875 C 109.195312 79.066406 109.039062 78.796875 108.902344 78.503906 C 108.5625 77.769531 108.476562 70.726562 108.671875 69.703125 C 108.863281 68.726562 109.660156 68.539062 110.519531 68.320312 L 141.695312 68.3125 C 142.605469 68.523438 143.058594 69.140625 143.199219 70.039062 C 143.394531 71.289062 143.40625 76.535156 143.148438 77.703125 C 142.972656 78.5 142.339844 79.285156 141.457031 79.242188 Z M 58.515625 114.703125 C 57.867188 114.507812 57.445312 113.601562 57.339844 112.96875 C 57.125 111.660156 57.125 106.886719 57.304688 105.539062 C 57.445312 104.511719 57.867188 104.164062 58.84375 103.847656 L 90.027344 103.847656 C 90.9375 104.058594 91.390625 104.679688 91.53125 105.578125 C 91.722656 106.792969 91.738281 112.121094 91.480469 113.242188 C 91.25 114.246094 90.464844 114.738281 89.457031 114.769531 Z M 19.695312 165.492188 C 18.976562 165.476562 17.882812 165.015625 17.664062 164.292969 C 17.460938 163.605469 17.445312 156.808594 17.609375 155.960938 C 17.761719 155.160156 18.398438 154.804688 19.125 154.570312 C 29.011719 155.074219 39.984375 153.664062 49.746094 154.488281 C 50.25 154.53125 51.074219 154.542969 51.433594 154.902344 C 52.050781 155.519531 52.042969 163.839844 51.527344 164.699219 C 51.378906 164.949219 50.917969 165.335938 50.632812 165.417969 Z M 94.636719 210.410156 C 94.363281 211.265625 93.542969 211.667969 92.6875 211.691406 L 61.824219 211.542969 C 60.09375 210.96875 60.296875 204.476562 60.570312 202.820312 C 60.8125 201.335938 61.710938 200.984375 63.058594 200.785156 L 93.257812 200.769531 C 93.984375 201 94.621094 201.359375 94.773438 202.160156 C 94.960938 203.140625 94.910156 209.566406 94.636719 210.410156 Z M 132.171875 177.53125 C 131.847656 178.210938 131.265625 178.75 130.480469 178.75 L 99.210938 178.660156 C 98.132812 178.457031 97.859375 177.582031 97.71875 176.601562 C 97.546875 175.414062 97.503906 169.105469 98.09375 168.476562 C 98.515625 168.027344 99.777344 167.789062 100.414062 167.730469 C 110.007812 166.863281 120.980469 168.355469 130.71875 167.816406 C 133.761719 168.488281 131.96875 175.230469 132.171875 177.53125 Z M 132.171875 177.53125 " fill-opacity="1" fill-rule="nonzero"/></g><g clip-path="url(#0529837bdf)"><path fill="#010101" d="M 207.476562 174.046875 C 205.925781 173.535156 197.199219 171.695312 196.855469 171.269531 C 196.765625 171.15625 196.53125 168.667969 196.648438 168.40625 C 196.882812 167.878906 200.117188 164.832031 200.960938 163.648438 C 201.765625 162.519531 204.035156 157.683594 204.324219 157.480469 C 204.59375 157.289062 205.519531 157.335938 206.042969 157.105469 C 210.730469 155.039062 212.566406 150.140625 210.621094 145.378906 C 210.285156 144.554688 209.425781 144.039062 209.402344 143.050781 C 209.363281 141.472656 210.300781 138.707031 210.382812 136.890625 C 210.792969 127.667969 205.332031 119.554688 196.503906 116.859375 C 190.472656 115.019531 180.539062 114.617188 175.355469 118.648438 C 174.269531 119.496094 172.191406 122.546875 171.960938 122.683594 C 171.53125 122.941406 169.8125 122.992188 168.980469 123.253906 C 162.8125 125.183594 162.179688 133.105469 162.582031 138.523438 C 162.679688 139.878906 163.578125 142.472656 163.53125 143.371094 C 163.5 143.980469 162.542969 144.855469 162.253906 145.601562 C 160.796875 149.339844 162.4375 155.476562 166.375 157.019531 C 167.148438 157.324219 168.40625 157.292969 168.894531 157.726562 C 169.351562 158.132812 171.519531 162.863281 172.46875 164.164062 C 172.949219 164.824219 173.664062 165.691406 174.210938 166.300781 C 175.585938 167.839844 177.675781 168.164062 176.476562 170.734375 C 176.128906 171.480469 163.226562 174.722656 160.863281 175.871094 C 154.554688 178.933594 153.128906 183.269531 151.316406 189.578125 C 149.230469 196.847656 145.027344 214.542969 148.101562 221.175781 C 151.085938 227.601562 158.398438 223.570312 162.914062 221.378906 C 162.925781 225.402344 162.878906 229.472656 162.589844 233.488281 C 162.246094 238.320312 160.953125 243.96875 160.953125 248.675781 C 160.953125 251.058594 161.652344 253.375 164.230469 253.867188 C 162.898438 267.261719 162.957031 280.773438 162.902344 294.242188 C 163.773438 308.636719 164.519531 323.125 166.191406 337.472656 C 166.34375 338.785156 166.542969 340.15625 167.007812 341.402344 C 164.839844 343.980469 157.53125 347.390625 161.527344 351.1875 C 166.683594 350.933594 172.546875 351.738281 177.621094 351.261719 C 183.476562 350.714844 180.289062 344.851562 181.363281 343.214844 C 181.566406 342.90625 183.429688 343.109375 184.015625 341.179688 C 184.71875 338.859375 183.769531 335.773438 184.566406 333.332031 C 184.484375 317.140625 184.601562 300.972656 186.167969 284.859375 C 186.613281 280.28125 187.476562 275.722656 187.785156 271.128906 L 188.742188 275.5 C 192.203125 295.605469 190.261719 316.121094 191.320312 336.238281 C 191.378906 337.378906 191.609375 340.558594 191.953125 341.421875 C 192.652344 343.160156 194.347656 342.660156 194.550781 342.863281 C 195.011719 343.328125 193.402344 350.125 197.136719 351.097656 L 214.414062 351.242188 C 215.242188 351.167969 215.730469 350.121094 215.816406 349.386719 C 216.203125 346.058594 210.714844 343.109375 208.441406 341.367188 C 208.683594 340.433594 208.945312 339.402344 209.050781 338.445312 C 211.871094 313.074219 213.167969 287.425781 212.015625 261.90625 C 211.894531 259.265625 211.511719 256.542969 211.335938 253.898438 C 213.195312 253.019531 213.757812 252.394531 213.949219 250.304688 C 214.527344 244.050781 212.679688 236.042969 212.328125 229.609375 C 212.257812 228.378906 212.363281 227.128906 212.324219 225.898438 C 217.570312 226.429688 222.871094 227.445312 224.574219 221.195312 C 226.34375 214.703125 223.707031 200.09375 222.234375 193.207031 C 219.898438 182.300781 218.65625 177.742188 207.476562 174.046875 Z M 206.585938 150.863281 L 208.121094 147.71875 C 208.214844 149.808594 207.78125 152.351562 205.867188 153.53125 Z M 164.855469 148.039062 C 165.421875 148.128906 165.414062 148.691406 165.585938 149.082031 C 166.261719 150.617188 166.976562 152.242188 167.433594 153.855469 C 165.640625 152.667969 164.863281 150.136719 164.855469 148.039062 Z M 173.3125 159.445312 C 172.371094 157.792969 169.269531 150.820312 170.183594 149.332031 C 170.371094 149.027344 171.128906 148.789062 171.488281 148.378906 C 173.894531 145.609375 176.066406 142.332031 176.804688 138.671875 C 180.78125 141.96875 185.511719 144.601562 190.433594 146.195312 C 191.875 146.660156 197.085938 148.148438 198.269531 148.039062 C 199.628906 147.914062 199.65625 146.09375 199.082031 145.136719 C 199.667969 144.671875 203.175781 148.832031 203.28125 149.84375 C 203.398438 151.035156 201.207031 156.699219 200.546875 158.0625 C 198.277344 162.738281 192.417969 169.328125 186.875 169.613281 C 181.691406 169.878906 175.675781 163.601562 173.3125 159.445312 Z M 179.710938 170.976562 C 182.015625 171.554688 184.105469 172.941406 186.652344 172.941406 C 189.140625 172.945312 191.253906 171.507812 193.59375 170.976562 C 193.21875 172.328125 194.660156 173.277344 193.9375 174.382812 C 192.382812 176.761719 187.777344 178.089844 185.0625 177.734375 C 183.632812 177.546875 178.933594 175.078125 178.828125 173.726562 C 178.792969 173.308594 180.089844 171.851562 179.710938 170.976562 Z M 177.609375 348.019531 L 164.53125 348.019531 L 170.671875 343.015625 C 173.226562 342.46875 175.816406 343.507812 178.417969 343.171875 C 178.351562 343.914062 178.195312 348.019531 177.609375 348.019531 Z M 211.675781 348.019531 L 198.277344 348.019531 C 197.449219 348.019531 197.898438 343.929688 197.789062 343.171875 C 199.671875 343.496094 201.683594 342.824219 203.441406 342.820312 C 205.941406 342.816406 209.671875 346.523438 211.675781 348.019531 Z M 205.542969 339.617188 L 194.886719 339.617188 C 194.164062 329.691406 194.792969 319.683594 194.574219 309.722656 C 194.316406 297.867188 193.617188 285.6875 191.933594 273.921875 C 191.609375 271.671875 190.96875 265.949219 189.996094 264.226562 C 189.226562 262.859375 187.378906 262.535156 186.339844 263.707031 C 185.269531 264.917969 184.242188 273.410156 183.953125 275.535156 C 181.074219 296.773438 181.328125 318.207031 181 339.617188 L 170.183594 339.617188 C 169.683594 339.460938 169.207031 334.875 169.09375 333.925781 C 165.886719 307.816406 165.792969 281.390625 167.113281 255.136719 C 167.136719 254.808594 167.289062 254.449219 167.625 254.367188 C 167.910156 254.300781 172.460938 255.210938 173.414062 255.296875 C 185.089844 256.339844 196.5 256.046875 208.125 254.652344 C 208.6875 260.085938 208.597656 265.527344 208.757812 270.980469 C 208.78125 271.746094 209.089844 272.449219 209.105469 273.214844 C 209.644531 295.457031 207.851562 317.542969 205.542969 339.617188 Z M 164.574219 250.410156 C 164.464844 243.464844 165.757812 236.558594 166.160156 229.628906 C 166.359375 226.164062 166.429688 222.261719 166.183594 218.84375 C 169.882812 216.632812 173.058594 213.636719 176.476562 211.039062 C 174.816406 217.804688 180.855469 218.644531 186.011719 219.433594 C 190.773438 220.160156 193.332031 221.398438 197.867188 222.753906 C 201.460938 223.828125 205.109375 224.628906 208.777344 225.40625 L 210.667969 250.410156 C 195.675781 253.734375 179.613281 253.488281 164.574219 250.410156 Z M 182.941406 187.132812 C 183.664062 187.253906 183.492188 188.324219 183.890625 188.609375 C 184.875 189.320312 188.273438 185.804688 189.566406 185.558594 C 190.726562 187.148438 194.21875 190.488281 193.359375 192.53125 C 192.71875 194.046875 185.714844 198.796875 184.546875 198.285156 C 184.230469 198.148438 181.132812 194.367188 181.082031 194.023438 C 180.921875 193.027344 182.980469 188.574219 182.941406 187.132812 Z M 186.816406 206.191406 C 187.707031 206.839844 190.480469 209.9375 190.550781 210.867188 C 190.578125 211.234375 189.257812 216.011719 189.027344 216.160156 C 187.140625 216.53125 179.726562 215.652344 179.476562 213.421875 C 179.394531 212.691406 180.25 207.503906 180.714844 207.199219 C 182.863281 206.773438 186.957031 209.902344 186.816406 206.191406 Z M 221.683594 218.949219 C 221.222656 223.546875 218.640625 223.246094 214.730469 223.003906 C 207.414062 222.550781 199.238281 219.796875 192.332031 217.46875 C 192.078125 217.121094 193.660156 211.5625 194.117188 211.402344 L 208.273438 212.34375 C 210.09375 212.230469 211.96875 212.460938 213.78125 212.332031 C 216.398438 212.140625 211.867188 210.523438 211.675781 210.152344 C 210.5625 205.246094 209.800781 200.113281 207.640625 195.53125 L 207.804688 209.101562 L 192.839844 208.078125 C 190.808594 205.71875 188.960938 202.707031 185.847656 201.664062 L 190.785156 199.023438 C 192.769531 197.785156 196.796875 194.679688 196.832031 192.148438 C 196.863281 189.746094 193.675781 185.046875 191.808594 183.589844 C 188.738281 181.195312 187.285156 183.773438 186.359375 183.554688 C 185.777344 183.414062 185.503906 181.035156 182.941406 182.132812 C 180.59375 183.136719 178.957031 190.160156 178.09375 192.460938 C 174.011719 194.230469 170.128906 196.492188 166.300781 198.757812 C 165.644531 198.84375 165.882812 198.730469 165.820312 198.28125 C 165.699219 197.375 165.9375 196.277344 165.824219 195.363281 C 165.765625 194.914062 165.648438 194.429688 165.183594 194.886719 C 164.265625 196.558594 163.785156 199.203125 162.734375 200.679688 C 161.867188 201.890625 159.996094 202.871094 158.871094 203.921875 C 158.644531 204.136719 154.222656 208.585938 155.648438 208.128906 L 178.078125 195.988281 C 178.84375 195.863281 181.375 199.957031 182.285156 200.539062 C 176.109375 206.570312 169.519531 213.289062 162.117188 217.828125 C 159.304688 219.554688 152.460938 223.835938 150.808594 219.113281 C 148.78125 213.308594 153.25 193.839844 155.402344 187.53125 C 156.894531 183.167969 158.109375 180.804688 162.476562 178.777344 C 163.960938 178.089844 175.109375 174.527344 175.773438 174.914062 C 175.886719 174.980469 176.875 176.726562 177.273438 177.128906 C 183.261719 183.144531 193.242188 181.929688 197.679688 174.828125 C 204.453125 177.054688 213.109375 177.101562 216.355469 184.554688 C 219.53125 191.851562 222.472656 211.109375 221.683594 218.949219 Z M 221.683594 218.949219 " fill-opacity="1" fill-rule="nonzero"/></g><g clip-path="url(#236d8ece2e)"><path fill="#010101" d="M 356.828125 166.453125 L 341.167969 166.453125 C 342.140625 163.917969 347.882812 158.335938 341.492188 159.671875 L 341.492188 148.203125 C 341.492188 147.144531 339.160156 144.808594 338.101562 144.808594 L 323.730469 144.808594 C 324.191406 141.144531 322.953125 138.425781 319.042969 138.03125 C 309.144531 137.027344 297.550781 138.707031 287.476562 138.101562 C 284.128906 138.820312 283.628906 142.253906 283.523438 145.136719 C 281.988281 144.882812 277.914062 141.476562 276.753906 141.554688 C 275.265625 141.65625 276.234375 144.519531 275.941406 144.8125 C 275.691406 145.058594 269.207031 144.839844 268.976562 144.496094 C 268.90625 144.394531 269.140625 143.421875 269.035156 142.863281 C 268.605469 140.589844 267.226562 139.796875 265.09375 139.34375 C 257.042969 139.882812 247.847656 138.523438 239.9375 139.320312 C 237.5 139.566406 236.878906 140.53125 235.691406 142.507812 C 232.035156 143.152344 223.628906 141.441406 220.734375 143.371094 C 218.03125 145.179688 219.433594 148.332031 219.425781 150.785156 C 219.425781 152.050781 218.785156 153.714844 219.105469 155.148438 L 213.9375 155.148438 L 213.9375 158.054688 L 220.234375 158.054688 C 222.601562 158.054688 221.179688 152.175781 222.210938 151.898438 C 226.328125 152.546875 231.8125 150.855469 235.726562 151.601562 C 236.933594 151.832031 237.503906 153.605469 240.566406 153.867188 C 246.5625 154.382812 258.859375 154.449219 264.792969 153.851562 C 268.59375 153.46875 269.394531 151.269531 269.15625 147.714844 L 276.261719 147.71875 C 275.679688 148.65625 275.714844 150.511719 277.070312 150.503906 C 277.875 150.5 283.464844 146.769531 283.683594 147.070312 C 283.402344 152.40625 284.601562 154.460938 289.972656 154.839844 C 293.316406 155.074219 297.578125 154.929688 300.984375 154.84375 C 301.53125 154.828125 301.933594 154.746094 302.414062 154.5 C 303.246094 155.601562 295.289062 163.316406 302.09375 161.609375 C 301.882812 164.128906 302.382812 167.066406 302.101562 169.53125 C 302 170.421875 301.777344 171.367188 300.660156 171.320312 L 270.96875 171.335938 C 269.167969 171.15625 266.898438 173.378906 266.898438 175.015625 L 266.898438 184.222656 C 266.113281 184.257812 264.671875 183.449219 264.128906 184.203125 C 263.238281 185.445312 266.882812 189.53125 267.21875 191.007812 L 251.558594 191.007812 C 249.046875 191.007812 247.183594 196.28125 247.839844 198.4375 C 245.195312 197.761719 238.734375 191.554688 240.417969 198.113281 L 236.542969 197.792969 L 236.542969 169.847656 C 236.542969 169.742188 236.066406 168.035156 235.972656 167.832031 C 234.363281 164.363281 228.757812 166.511719 226.09375 165.761719 C 225.210938 165.515625 226.652344 162.96875 224.765625 162.910156 C 224.3125 162.898438 219.035156 165.992188 218.613281 166.449219 C 217.464844 167.695312 218.742188 168.171875 219.777344 168.851562 C 220.703125 169.460938 224.789062 172.066406 225.585938 171.488281 C 226.160156 170.691406 225.953125 169.582031 225.5625 168.714844 L 232.828125 168.714844 C 232.886719 168.714844 233.636719 169.46875 233.636719 169.523438 L 233.636719 197.632812 C 233.636719 200.878906 238.117188 200.980469 240.417969 200.703125 C 240.082031 201.566406 239.796875 203.636719 241.027344 203.78125 C 241.96875 203.886719 247.511719 200 247.84375 200.378906 C 247.792969 202.328125 247.964844 204.929688 249.488281 206.324219 C 249.78125 206.589844 251.300781 207.484375 251.558594 207.484375 L 266.898438 207.484375 L 266.898438 223.476562 C 266.898438 223.59375 267.898438 225.402344 268.042969 225.558594 C 269.765625 227.460938 276.292969 226.15625 278.84375 226.546875 C 278.480469 227.425781 278.195312 229.417969 279.644531 229.445312 C 280.546875 229.457031 286.046875 225.597656 286.269531 225.898438 C 285.949219 229.210938 286.8125 232.441406 290.386719 233.253906 C 300.222656 232.578125 311.976562 234.4375 321.597656 233.292969 C 323.226562 233.101562 324.773438 232.308594 325.621094 230.859375 C 326.578125 229.214844 326.582031 222.355469 326.171875 220.390625 C 325.964844 219.40625 324.160156 216.851562 323.246094 216.851562 L 307.585938 216.851562 C 308.101562 214.382812 314.097656 208.792969 307.90625 210.070312 L 307.90625 201.347656 L 337.777344 201.347656 C 337.96875 201.347656 340.117188 200.804688 340.332031 200.671875 C 340.699219 200.4375 341.492188 198.886719 341.492188 198.601562 L 341.492188 189.714844 C 348.132812 191.863281 342.054688 185.359375 341.167969 182.929688 L 356.828125 182.929688 C 357.894531 182.929688 359.910156 180.882812 360.152344 179.792969 C 360.4375 178.511719 360.390625 170.917969 360.070312 169.675781 C 359.8125 168.695312 357.75 166.453125 356.828125 166.453125 Z M 235.410156 149.007812 L 221.6875 149.007812 C 221.640625 148.402344 221.984375 145.457031 222.496094 145.457031 L 235.894531 145.457031 C 235.851562 146.101562 236.152344 149.007812 235.410156 149.007812 Z M 265.765625 150.949219 L 238.800781 150.949219 C 238.90625 150.628906 238.480469 150.246094 238.480469 150.140625 L 238.480469 142.710938 C 238.480469 142.355469 239.269531 142.246094 239.59375 142.207031 C 243.117188 141.792969 248.164062 142.257812 251.894531 142.238281 C 253.316406 142.230469 254.640625 142.226562 256.066406 142.238281 C 257.964844 142.253906 264.5 141.847656 265.726562 142.265625 C 267.023438 142.710938 266.304688 145.96875 266.253906 146.914062 C 266.214844 147.648438 266.511719 150.949219 265.765625 150.949219 Z M 287.789062 151.855469 C 287.140625 151.660156 286.71875 150.753906 286.613281 150.121094 C 286.398438 148.8125 286.398438 144.039062 286.578125 142.695312 C 286.71875 141.664062 287.140625 141.316406 288.117188 141 L 319.875 141.074219 C 321.527344 141.628906 321.273438 146.320312 321.160156 147.890625 C 321.050781 149.394531 320.992188 151.789062 319.066406 151.933594 Z M 251.726562 204.40625 C 251.457031 204.191406 251.054688 203.90625 250.917969 203.601562 C 250.644531 202.976562 250.585938 196.296875 250.757812 195.378906 C 250.925781 194.472656 251.660156 194.007812 252.511719 193.898438 C 255.394531 193.523438 260.785156 193.703125 263.921875 193.6875 C 270.738281 193.65625 277.609375 194.128906 284.441406 193.96875 C 284.773438 194.078125 284.929688 194.34375 285.066406 194.636719 C 285.433594 195.429688 285.488281 202.800781 285.132812 203.601562 C 285 203.90625 284.597656 204.191406 284.328125 204.40625 Z M 321.886719 219.507812 C 322.609375 219.738281 323.246094 220.097656 323.402344 220.898438 C 323.570312 221.785156 323.554688 228.472656 323.339844 229.222656 C 323.160156 229.84375 322.316406 230.46875 321.648438 230.4375 L 290.371094 230.359375 C 290.042969 230.265625 289.863281 230.023438 289.667969 229.769531 C 288.976562 228.878906 289.007812 222.941406 289.171875 221.53125 C 289.328125 220.203125 289.703125 219.757812 291.03125 219.515625 Z M 338.585938 189.714844 L 338.585938 198.4375 L 307.421875 198.4375 C 306.65625 198.4375 305 200.792969 305 201.507812 L 305 210.070312 C 298.027344 208 305.945312 216.230469 305.320312 216.851562 C 303.746094 216.128906 302.449219 216.824219 300.976562 216.867188 C 297.789062 216.960938 292.578125 216.347656 289.738281 216.925781 C 286.742188 217.535156 285.929688 221.351562 286.269531 223.960938 C 285.8125 224.464844 280.324219 220.523438 279.597656 220.453125 C 278.113281 220.300781 278.324219 222.808594 278.84375 223.636719 L 270.125 223.636719 C 270.230469 223.320312 269.804688 222.9375 269.804688 222.828125 L 269.804688 207.484375 L 284.496094 207.484375 C 285.640625 207.484375 287.496094 205.527344 287.867188 204.398438 C 288.398438 202.785156 288.464844 195.929688 287.992188 194.292969 C 287.632812 193.058594 285.796875 191.007812 284.496094 191.007812 L 269.480469 191.007812 C 270.152344 188.609375 275.925781 182.925781 269.804688 184.222656 C 270.074219 182.550781 269.246094 175.296875 270.257812 174.5 C 270.6875 174.160156 271.078125 174.238281 271.558594 174.191406 C 280.625 173.300781 291.179688 175 300.328125 174.21875 C 307.386719 173.617188 304.367188 166.53125 305.003906 161.609375 C 311.570312 163.085938 305.628906 157.371094 304.679688 154.828125 C 305.730469 154.972656 306.707031 154.550781 307.734375 154.488281 C 311.722656 154.242188 317.203125 155.40625 320.839844 154.355469 C 323.601562 153.554688 324.0625 150.15625 323.730469 147.71875 L 337.777344 147.71875 C 339.410156 148.1875 339.128906 159.011719 338.582031 159.671875 C 338.472656 159.800781 335.648438 158.578125 335.675781 160.472656 C 335.6875 161.40625 338.820312 165.050781 338.90625 166.453125 L 323.890625 166.453125 C 323.464844 166.453125 321.667969 167.644531 321.324219 168.082031 C 319.585938 170.296875 319.609375 179.265625 321.464844 181.480469 C 321.757812 181.832031 323.292969 182.929688 323.570312 182.929688 L 339.230469 182.929688 C 338.910156 184.109375 335.683594 188.160156 335.675781 188.914062 C 335.660156 190.332031 337.734375 190.097656 338.585938 189.714844 Z M 357.25 179.152344 L 356.175781 180.015625 C 354.554688 179.738281 352.839844 180.335938 351.355469 180.359375 C 349.726562 180.386719 348.230469 180.015625 346.832031 180.011719 C 339.203125 179.980469 331.574219 180.105469 323.945312 179.96875 C 323.613281 179.863281 323.460938 179.59375 323.324219 179.300781 C 322.882812 178.355469 322.882812 170.417969 323.492188 169.769531 C 323.914062 169.320312 325.171875 169.082031 325.8125 169.023438 C 332.628906 168.40625 340.902344 169.15625 347.773438 169.375 C 349.847656 169.441406 354.871094 168.949219 356.445312 169.425781 C 358.675781 170.097656 357.128906 177.246094 357.25 179.152344 Z M 357.25 179.152344 " fill-opacity="1" fill-rule="nonzero"/></g><path fill="#010202" d="M 218.621094 103.457031 L 248.003906 103.457031 C 248.453125 103.457031 250.429688 101.921875 250.429688 101.355469 L 250.429688 93.117188 L 247.84375 93.117188 L 247.84375 100.066406 C 247.84375 100.097656 247.394531 100.550781 247.359375 100.550781 L 219.910156 100.550781 C 219.65625 100.550781 217.542969 100.945312 217.175781 101.054688 C 213.933594 102.015625 215.664062 111.132812 215.226562 113.792969 C 215.058594 113.972656 212.507812 112.671875 212.316406 114.617188 C 212.253906 115.21875 215.035156 119.703125 215.605469 120.363281 C 216.335938 121.207031 216.488281 121.707031 217.449219 120.699219 C 217.867188 120.261719 221.023438 115.242188 221.050781 114.902344 C 221.203125 113.082031 219.175781 113.738281 218.136719 114.117188 L 218.136719 103.941406 C 218.136719 103.90625 218.585938 103.457031 218.621094 103.457031 Z M 218.621094 103.457031 " fill-opacity="1" fill-rule="nonzero"/><g clip-path="url(#119f575c67)"><path fill="#000000" d="M 112.277344 351.96875 L 108.84375 353.652344 L 108.882812 348.925781 L 112.285156 350.660156 C 115.070312 350.628906 154.351562 350.25 177.976562 350.175781 C 209.253906 350.078125 251.015625 350.578125 255.09375 350.59375 L 258.859375 348.714844 L 258.859375 353.914062 L 255.125 352.050781 C 254.933594 352.058594 254.742188 352.03125 254.550781 352.035156 C 244.128906 352.132812 206.394531 352.542969 177.976562 352.453125 C 154.332031 352.378906 115.015625 352 112.277344 351.96875 Z M 110.171875 351.050781 L 110.167969 351.546875 L 110.667969 351.304688 Z M 257.421875 351.039062 L 256.871094 351.316406 L 257.421875 351.589844 Z M 257.421875 351.039062 " fill-opacity="1" fill-rule="evenodd"/></g></svg>