<svg xmlns="http://www.w3.org/2000/svg" xmlns:xlink="http://www.w3.org/1999/xlink" width="500" zoomAndPan="magnify" viewBox="0 0 375 374.999991" height="500" preserveAspectRatio="xMidYMid meet" version="1.0"><defs><clipPath id="044089209d"><path d="M 4.21875 0 L 370.96875 0 L 370.96875 375 L 4.21875 375 Z M 4.21875 0 " clip-rule="nonzero"/></clipPath></defs><g clip-path="url(#044089209d)"><path fill="#000011" d="M 368.234375 78.980469 C 368.230469 78.976562 368.230469 78.976562 368.230469 78.972656 C 362.734375 69.480469 350.523438 66.203125 341.003906 71.683594 C 336.308594 74.398438 333.136719 78.753906 331.785156 83.613281 L 292.808594 83.613281 C 288.046875 69.378906 276.21875 58.261719 261.234375 54.703125 C 261.253906 54.195312 261.261719 53.6875 261.261719 53.183594 C 261.261719 52.625 261.246094 52.078125 261.234375 51.523438 L 318.75 41.738281 C 319.230469 42.96875 319.8125 44.183594 320.492188 45.363281 C 324.019531 51.480469 329.726562 55.855469 336.554688 57.679688 C 338.828125 58.285156 341.132812 58.585938 343.425781 58.585938 C 348.007812 58.585938 352.53125 57.382812 356.601562 55.03125 C 369.230469 47.753906 373.578125 31.566406 366.296875 18.941406 C 366.296875 18.9375 366.292969 18.933594 366.289062 18.929688 C 358.980469 6.332031 342.78125 2 330.1875 9.273438 C 322 13.992188 317.300781 22.453125 316.984375 31.261719 L 260.25 40.917969 C 260.019531 39.597656 259.753906 38.304688 259.449219 37.046875 C 263.988281 33.199219 266.875 27.460938 266.875 21.058594 C 266.875 9.496094 257.464844 0.0898438 245.898438 0.0898438 C 240.703125 0.0898438 235.945312 1.992188 232.277344 5.132812 C 213.886719 -1.832031 190.847656 3.128906 178.390625 16.207031 C 165.945312 3.125 142.914062 -1.832031 124.515625 5.132812 C 120.847656 1.992188 116.089844 0.0898438 110.894531 0.0898438 C 99.324219 0.0898438 89.914062 9.496094 89.914062 21.058594 C 89.914062 27.453125 92.800781 33.1875 97.332031 37.035156 C 97.265625 37.328125 97.1875 37.609375 97.121094 37.902344 L 58.101562 31.261719 C 57.789062 22.453125 53.09375 13.988281 44.914062 9.273438 C 32.292969 2 16.09375 6.332031 8.808594 18.9375 C 8.804688 18.9375 8.804688 18.941406 8.804688 18.941406 C 1.527344 31.558594 5.863281 47.75 18.476562 55.03125 C 22.558594 57.382812 27.082031 58.585938 31.667969 58.585938 C 33.957031 58.585938 36.265625 58.285156 38.535156 57.679688 C 45.359375 55.855469 51.058594 51.480469 54.585938 45.363281 C 55.269531 44.183594 55.847656 42.972656 56.328125 41.738281 L 95.660156 48.429688 C 95.566406 49.988281 95.507812 51.570312 95.507812 53.183594 C 95.507812 53.691406 95.519531 54.199219 95.535156 54.707031 C 80.5625 58.273438 68.742188 69.386719 63.984375 83.613281 L 43.304688 83.613281 C 41.953125 78.757812 38.777344 74.398438 34.074219 71.679688 C 29.464844 69.023438 24.09375 68.320312 18.949219 69.703125 C 13.808594 71.082031 9.519531 74.375 6.871094 78.980469 C 4.207031 83.566406 3.5 88.921875 4.871094 94.058594 C 6.246094 99.207031 9.539062 103.507812 14.144531 106.164062 C 17.222656 107.945312 20.636719 108.855469 24.097656 108.855469 C 25.832031 108.855469 27.578125 108.625 29.296875 108.164062 C 34.4375 106.785156 38.726562 103.492188 41.375 98.894531 C 42.242188 97.398438 42.886719 95.832031 43.328125 94.234375 L 61.84375 94.234375 C 61.761719 95.34375 61.710938 96.460938 61.710938 97.589844 C 61.710938 103.542969 62.882812 109.324219 65.148438 114.6875 L 33.246094 114.6875 C 26.078125 114.6875 20.15625 120.28125 19.761719 127.421875 C 18.421875 151.632812 22.832031 176.257812 32.519531 198.640625 C 64.972656 273.617188 64.949219 279.046875 64.6875 345.542969 C 64.664062 352.128906 64.636719 359.300781 64.636719 367.1875 C 64.636719 371.40625 68.0625 374.84375 72.273438 374.84375 L 209.519531 374.84375 C 213.449219 374.84375 216.550781 372.289062 216.894531 368.757812 L 219.199219 344.179688 C 219.457031 341.4375 220.738281 339.152344 223.121094 337.191406 C 227.742188 333.386719 236.210938 331.363281 244.1875 332.152344 L 278.816406 335.613281 C 288.867188 336.597656 298.121094 331.730469 302.964844 322.910156 L 319.898438 292.160156 C 323.496094 285.625 319.4375 279.5625 317.492188 276.65625 L 313.621094 270.839844 L 318.746094 271.796875 C 320.988281 272.203125 323.199219 271.636719 324.972656 270.203125 C 325.03125 270.160156 325.085938 270.109375 325.140625 270.0625 C 326.847656 268.5625 327.785156 266.507812 327.785156 264.226562 L 327.542969 232.445312 L 358.328125 223.066406 C 360.679688 222.375 362.511719 220.65625 363.371094 218.296875 C 364.179688 216 363.871094 213.523438 362.519531 211.492188 L 330.109375 163.007812 L 330.109375 160.257812 C 330.113281 148.820312 330.117188 138.015625 329.785156 127.753906 C 329.570312 120.425781 323.644531 114.6875 316.296875 114.6875 L 291.636719 114.6875 C 293.90625 109.3125 295.082031 103.53125 295.082031 97.589844 C 295.082031 96.460938 295.03125 95.34375 294.949219 94.234375 L 331.761719 94.234375 C 332.199219 95.832031 332.84375 97.394531 333.707031 98.894531 C 336.375 103.503906 340.671875 106.796875 345.8125 108.171875 C 347.523438 108.628906 349.261719 108.855469 350.988281 108.855469 C 354.441406 108.855469 357.855469 107.945312 360.921875 106.171875 C 365.53125 103.523438 368.828125 99.234375 370.210938 94.09375 C 371.59375 88.953125 370.890625 83.585938 368.234375 78.980469 Z M 335.5 18.472656 C 337.976562 17.042969 340.6875 16.363281 343.363281 16.363281 C 348.824219 16.363281 354.15625 19.195312 357.09375 24.253906 C 359.199219 27.910156 359.761719 32.167969 358.667969 36.242188 C 357.574219 40.316406 354.953125 43.722656 351.289062 45.832031 C 347.632812 47.941406 343.375 48.503906 339.296875 47.414062 C 335.214844 46.324219 331.808594 43.714844 329.699219 40.058594 C 325.34375 32.507812 327.945312 22.828125 335.5 18.472656 Z M 35.789062 47.417969 C 31.714844 48.503906 27.449219 47.941406 23.789062 45.832031 C 16.25 41.480469 13.660156 31.800781 18.007812 24.253906 C 22.367188 16.714844 32.054688 14.125 39.605469 18.476562 C 47.148438 22.824219 49.738281 32.503906 45.378906 40.058594 C 43.269531 43.714844 39.867188 46.328125 35.789062 47.417969 Z M 32.167969 93.585938 C 30.933594 95.730469 28.9375 97.261719 26.542969 97.90625 C 24.136719 98.546875 21.625 98.21875 19.464844 96.96875 C 17.316406 95.730469 15.78125 93.722656 15.140625 91.320312 C 14.5 88.925781 14.828125 86.433594 16.070312 84.300781 C 16.070312 84.292969 16.074219 84.289062 16.078125 84.28125 C 17.3125 82.140625 19.3125 80.605469 21.707031 79.960938 C 22.515625 79.742188 23.332031 79.636719 24.144531 79.636719 C 25.75 79.636719 27.332031 80.054688 28.753906 80.878906 C 33.203125 83.449219 34.738281 89.144531 32.167969 93.585938 Z M 256.25 21.058594 C 256.25 26.761719 251.605469 31.402344 245.898438 31.402344 C 240.195312 31.402344 235.550781 26.761719 235.550781 21.058594 C 235.550781 15.355469 240.195312 10.714844 245.898438 10.714844 C 251.605469 10.714844 256.25 15.355469 256.25 21.058594 Z M 226.066406 14.242188 C 225.328125 16.382812 224.921875 18.671875 224.921875 21.058594 C 224.921875 32.617188 234.332031 42.023438 245.898438 42.023438 C 247.160156 42.023438 248.390625 41.90625 249.589844 41.691406 C 250.277344 45.234375 250.632812 49.078125 250.632812 53.183594 C 250.632812 54.875 250.507812 56.59375 250.261719 58.289062 C 250.253906 58.320312 250.246094 58.351562 250.242188 58.382812 C 249.574219 62.757812 248.03125 66.910156 245.664062 70.726562 C 244.117188 73.222656 244.886719 76.496094 247.378906 78.042969 C 248.253906 78.582031 249.21875 78.839844 250.175781 78.839844 C 251.953125 78.839844 253.691406 77.949219 254.699219 76.324219 C 256.863281 72.835938 258.492188 69.121094 259.59375 65.242188 C 274.054688 69.074219 284.453125 82.230469 284.453125 97.589844 C 284.453125 104.1875 282.542969 110.53125 278.914062 116.023438 C 278.851562 116.078125 278.792969 116.128906 278.734375 116.1875 C 278.675781 116.242188 278.621094 116.304688 278.5625 116.363281 C 278.503906 116.425781 278.445312 116.492188 278.386719 116.558594 C 278.320312 116.632812 278.261719 116.714844 278.199219 116.792969 C 278.167969 116.835938 278.132812 116.875 278.101562 116.921875 C 273.054688 124.019531 265.574219 128.828125 257.039062 130.457031 C 254.15625 131.007812 252.265625 133.789062 252.8125 136.671875 C 253.300781 139.214844 255.527344 140.984375 258.027344 140.984375 C 258.359375 140.984375 258.695312 140.953125 259.03125 140.890625 C 267.710938 139.234375 275.554688 135.074219 281.738281 128.96875 C 284.171875 133.667969 285.445312 138.871094 285.445312 144.296875 C 285.445312 146.675781 285.191406 149.015625 284.703125 151.296875 C 283.035156 150.871094 281.285156 150.640625 279.484375 150.640625 C 267.917969 150.640625 258.507812 160.054688 258.507812 171.628906 C 258.507812 173.46875 258.746094 175.253906 259.195312 176.957031 C 256.910156 177.457031 254.570312 177.726562 252.203125 177.734375 C 252.085938 177.734375 251.96875 177.746094 251.851562 177.753906 C 245.351562 177.730469 239.0625 175.839844 233.648438 172.285156 C 231.199219 170.675781 227.902344 171.355469 226.289062 173.808594 C 224.679688 176.257812 225.359375 179.550781 227.8125 181.164062 C 233.480469 184.886719 239.878906 187.21875 246.5625 188.042969 C 244.378906 204.066406 232.097656 220.191406 217.324219 225.503906 C 205.21875 229.863281 193.625 226.238281 183.699219 215.035156 L 183.699219 185.632812 C 190.679688 183.386719 195.746094 176.839844 195.746094 169.132812 C 195.746094 167.878906 195.609375 166.65625 195.355469 165.476562 L 209.390625 157.371094 C 212.472656 160.164062 216.554688 161.867188 221.027344 161.867188 C 230.601562 161.867188 238.390625 154.089844 238.390625 144.53125 C 238.390625 136.816406 233.324219 130.261719 226.34375 128.015625 L 226.34375 111.808594 C 233.324219 109.5625 238.390625 103.019531 238.390625 95.3125 C 238.390625 85.753906 230.601562 77.976562 221.027344 77.976562 C 216.5625 77.976562 212.484375 79.675781 209.40625 82.457031 L 195.359375 74.351562 C 195.613281 73.175781 195.746094 71.957031 195.746094 70.710938 C 195.746094 62.992188 190.679688 56.441406 183.699219 54.191406 L 183.699219 26.453125 C 191.703125 14.84375 210.6875 9.628906 226.066406 14.242188 Z M 269.136719 171.628906 C 269.136719 165.914062 273.777344 161.261719 279.484375 161.261719 C 285.191406 161.261719 289.832031 165.914062 289.832031 171.628906 C 289.832031 177.332031 285.191406 181.972656 279.484375 181.972656 C 273.777344 181.972656 269.136719 177.332031 269.136719 171.628906 Z M 142.476562 95.3125 C 142.476562 99.011719 139.457031 102.019531 135.742188 102.019531 C 132.042969 102.019531 129.03125 99.011719 129.03125 95.3125 C 129.03125 91.613281 132.042969 88.601562 135.742188 88.601562 C 139.457031 88.601562 142.476562 91.609375 142.476562 95.3125 Z M 135.742188 137.800781 C 139.457031 137.800781 142.476562 140.820312 142.476562 144.535156 C 142.476562 148.234375 139.457031 151.242188 135.742188 151.242188 C 132.042969 151.242188 129.03125 148.234375 129.03125 144.53125 C 129.03125 140.820312 132.042969 137.800781 135.742188 137.800781 Z M 141.058594 128.015625 L 141.058594 111.808594 C 148.039062 109.5625 153.105469 103.019531 153.105469 95.3125 C 153.105469 94.054688 152.96875 92.832031 152.710938 91.652344 L 166.75 83.550781 C 169.828125 86.339844 173.910156 88.042969 178.386719 88.042969 C 182.867188 88.042969 186.957031 86.339844 190.039062 83.546875 L 204.078125 91.652344 C 203.824219 92.832031 203.6875 94.054688 203.6875 95.3125 C 203.6875 103.015625 208.746094 109.558594 215.714844 111.808594 L 215.714844 128.015625 C 208.746094 130.265625 203.6875 136.820312 203.6875 144.535156 C 203.6875 145.78125 203.824219 147 204.074219 148.175781 L 190.023438 156.285156 C 186.941406 153.5 182.859375 151.800781 178.386719 151.800781 C 173.917969 151.800781 169.839844 153.5 166.765625 156.28125 L 152.714844 148.171875 C 152.96875 147 153.105469 145.78125 153.105469 144.535156 C 153.105469 136.816406 148.039062 130.261719 141.058594 128.015625 Z M 178.386719 63.980469 C 182.097656 63.980469 185.121094 67 185.121094 70.710938 C 185.121094 74.410156 182.097656 77.417969 178.386719 77.417969 C 174.683594 77.417969 171.671875 74.410156 171.671875 70.710938 C 171.671875 67 174.683594 63.980469 178.386719 63.980469 Z M 214.316406 144.53125 C 214.316406 140.820312 217.328125 137.800781 221.027344 137.800781 C 224.742188 137.800781 227.761719 140.820312 227.761719 144.53125 C 227.761719 148.234375 224.742188 151.242188 221.027344 151.242188 C 217.328125 151.242188 214.316406 148.234375 214.316406 144.53125 Z M 221.027344 102.019531 C 217.328125 102.019531 214.316406 99.011719 214.316406 95.3125 C 214.316406 91.613281 217.328125 88.601562 221.027344 88.601562 C 224.742188 88.601562 227.761719 91.613281 227.761719 95.3125 C 227.761719 99.011719 224.742188 102.019531 221.027344 102.019531 Z M 178.386719 162.425781 C 182.097656 162.425781 185.121094 165.433594 185.121094 169.132812 C 185.121094 172.832031 182.097656 175.84375 178.386719 175.84375 C 174.683594 175.84375 171.671875 172.832031 171.671875 169.132812 C 171.671875 165.433594 174.683594 162.425781 178.386719 162.425781 Z M 110.894531 10.714844 C 116.597656 10.714844 121.242188 15.355469 121.242188 21.058594 C 121.242188 26.761719 116.597656 31.402344 110.894531 31.402344 C 105.1875 31.402344 100.542969 26.761719 100.542969 21.058594 C 100.542969 15.355469 105.1875 10.714844 110.894531 10.714844 Z M 97.179688 65.25 C 98.28125 69.125 99.910156 72.835938 102.074219 76.324219 C 103.078125 77.949219 104.816406 78.839844 106.59375 78.839844 C 107.550781 78.839844 108.519531 78.582031 109.390625 78.042969 C 111.882812 76.496094 112.652344 73.222656 111.105469 70.726562 C 108.761719 66.949219 107.234375 62.84375 106.554688 58.519531 C 106.542969 58.429688 106.539062 58.339844 106.523438 58.25 C 106.269531 56.617188 106.136719 54.914062 106.136719 53.183594 C 106.136719 49.105469 106.496094 45.261719 107.191406 41.691406 C 108.394531 41.90625 109.628906 42.023438 110.894531 42.023438 C 122.460938 42.023438 131.871094 32.617188 131.871094 21.058594 C 131.871094 18.671875 131.464844 16.378906 130.726562 14.242188 C 146.109375 9.625 165.085938 14.839844 173.070312 26.449219 L 173.070312 54.191406 C 166.101562 56.445312 161.042969 62.996094 161.042969 70.710938 C 161.042969 71.960938 161.179688 73.175781 161.433594 74.351562 L 147.382812 82.460938 C 144.300781 79.675781 140.214844 77.980469 135.742188 77.980469 C 126.179688 77.980469 118.402344 85.753906 118.402344 95.3125 C 118.402344 103.015625 123.457031 109.558594 130.429688 111.808594 L 130.429688 128.015625 C 123.457031 130.265625 118.402344 136.820312 118.402344 144.535156 C 118.402344 154.089844 126.179688 161.867188 135.742188 161.867188 C 140.222656 161.867188 144.3125 160.160156 147.394531 157.371094 L 161.4375 165.472656 C 161.183594 166.65625 161.042969 167.878906 161.042969 169.132812 C 161.042969 176.839844 166.101562 183.382812 173.070312 185.628906 L 173.070312 215.035156 C 163.15625 226.234375 151.574219 229.859375 139.472656 225.507812 C 124.6875 220.191406 112.398438 204.050781 110.222656 188.011719 C 116.808594 187.164062 123.121094 184.84375 128.734375 181.167969 C 131.191406 179.5625 131.878906 176.269531 130.269531 173.816406 C 128.660156 171.359375 125.367188 170.675781 122.914062 172.28125 C 117.527344 175.804688 111.300781 177.691406 104.878906 177.75 C 104.78125 177.746094 104.6875 177.734375 104.589844 177.734375 C 102.21875 177.726562 99.882812 177.457031 97.597656 176.957031 C 98.042969 175.253906 98.285156 173.46875 98.285156 171.628906 C 98.285156 160.054688 88.875 150.640625 77.308594 150.640625 C 75.507812 150.640625 73.757812 150.867188 72.085938 151.296875 C 71.601562 149.015625 71.347656 146.675781 71.347656 144.296875 C 71.347656 138.925781 72.59375 133.769531 74.980469 129.105469 C 81.132812 135.136719 88.921875 139.246094 97.546875 140.890625 C 97.882812 140.957031 98.21875 140.984375 98.550781 140.984375 C 101.050781 140.984375 103.277344 139.214844 103.761719 136.671875 C 104.3125 133.789062 102.421875 131.007812 99.539062 130.457031 C 90.996094 128.828125 83.527344 124.023438 78.503906 116.929688 C 78.5 116.921875 78.496094 116.917969 78.492188 116.914062 C 74.46875 111.25 72.339844 104.578125 72.339844 97.589844 C 72.339844 82.238281 82.730469 69.085938 97.179688 65.25 Z M 77.308594 161.261719 C 83.015625 161.261719 87.65625 165.914062 87.65625 171.628906 C 87.65625 177.332031 83.015625 181.972656 77.308594 181.972656 C 71.589844 181.972656 66.9375 177.332031 66.9375 171.628906 C 66.9375 165.914062 71.589844 161.261719 77.308594 161.261719 Z M 319.160156 128.082031 C 319.488281 138.183594 319.484375 148.90625 319.480469 160.253906 L 319.480469 163.910156 C 319.480469 165.378906 319.886719 166.765625 320.691406 168.035156 C 320.714844 168.074219 320.738281 168.113281 320.765625 168.148438 L 351.449219 214.054688 L 322.324219 222.929688 C 319.078125 223.917969 316.898438 226.855469 316.898438 230.289062 L 317.128906 260.6875 L 306.660156 258.738281 C 303.546875 258.179688 300.46875 259.808594 299.167969 262.683594 C 298.152344 264.9375 298.46875 267.304688 300.082031 269.683594 L 308.652344 282.554688 C 310.367188 285.117188 310.929688 286.417969 310.585938 287.039062 L 293.652344 317.792969 C 290.84375 322.902344 285.683594 325.609375 279.863281 325.042969 L 245.242188 321.582031 C 236.664062 320.734375 224.574219 322.230469 216.363281 328.992188 C 211.816406 332.734375 209.136719 337.640625 208.617188 343.1875 L 206.644531 364.21875 L 75.265625 364.21875 C 75.269531 357.503906 75.296875 351.320312 75.316406 345.585938 C 75.582031 278.453125 75.609375 271.4375 42.273438 194.421875 C 33.238281 173.546875 29.121094 150.582031 30.375 128.007812 C 30.457031 126.496094 31.71875 125.308594 33.246094 125.308594 L 65 125.308594 C 62.183594 131.183594 60.71875 137.609375 60.71875 144.296875 C 60.71875 148.558594 61.324219 152.734375 62.507812 156.753906 C 58.683594 160.558594 56.308594 165.820312 56.308594 171.628906 C 56.308594 183.1875 65.730469 192.59375 77.308594 192.59375 C 83.066406 192.59375 88.289062 190.261719 92.085938 186.496094 C 94.515625 187.230469 97 187.75 99.523438 188.050781 C 101.710938 208.472656 116.890625 228.675781 135.875 235.503906 C 144.9375 238.765625 161.921875 241.339844 178.386719 224.898438 C 188.5 234.992188 198.808594 237.917969 207.359375 237.917969 C 212.738281 237.917969 217.421875 236.761719 220.921875 235.5 C 239.902344 228.671875 255.082031 208.46875 257.269531 188.050781 C 259.792969 187.75 262.277344 187.230469 264.707031 186.496094 C 268.503906 190.261719 273.726562 192.59375 279.484375 192.59375 C 291.050781 192.59375 300.460938 183.191406 300.460938 171.628906 C 300.460938 165.828125 298.097656 160.570312 294.28125 156.765625 C 295.46875 152.742188 296.074219 148.5625 296.074219 144.296875 C 296.074219 137.613281 294.609375 131.183594 291.792969 125.308594 L 316.296875 125.308594 C 317.832031 125.308594 319.117188 126.546875 319.160156 128.082031 Z M 359.949219 91.335938 C 359.304688 93.730469 357.765625 95.730469 355.609375 96.96875 C 353.457031 98.214844 350.953125 98.546875 348.558594 97.90625 C 346.160156 97.265625 344.152344 95.726562 342.914062 93.585938 C 340.355469 89.144531 341.886719 83.441406 346.3125 80.882812 C 347.773438 80.042969 349.367188 79.644531 350.945312 79.644531 C 354.164062 79.644531 357.304688 81.3125 359.03125 84.292969 C 360.265625 86.4375 360.59375 88.9375 359.949219 91.335938 Z M 359.949219 91.335938 " fill-opacity="1" fill-rule="nonzero"/></g></svg>