<svg xmlns="http://www.w3.org/2000/svg" xmlns:xlink="http://www.w3.org/1999/xlink" width="500" zoomAndPan="magnify" viewBox="0 0 375 374.999991" height="500" preserveAspectRatio="xMidYMid meet" version="1.0"><path fill="#000000" d="M 75.519531 107.457031 C 87.246094 107.457031 96.785156 97.921875 96.785156 86.195312 C 96.785156 74.472656 87.246094 64.933594 75.519531 64.933594 C 63.796875 64.933594 54.257812 74.472656 54.257812 86.195312 C 54.257812 97.921875 63.796875 107.457031 75.519531 107.457031 Z M 75.519531 74.269531 C 82.09375 74.269531 87.449219 79.621094 87.449219 86.195312 C 87.449219 92.769531 82.09375 98.121094 75.519531 98.121094 C 68.945312 98.121094 63.59375 92.769531 63.59375 86.195312 C 63.59375 79.621094 68.945312 74.269531 75.519531 74.269531 Z M 130.921875 42.527344 C 142.648438 42.527344 152.1875 32.988281 152.1875 21.261719 C 152.1875 9.539062 142.648438 0 130.921875 0 C 119.199219 0 109.660156 9.539062 109.660156 21.261719 C 109.660156 32.988281 119.199219 42.527344 130.921875 42.527344 Z M 130.921875 9.335938 C 137.496094 9.335938 142.851562 14.6875 142.851562 21.261719 C 142.851562 27.835938 137.496094 33.191406 130.921875 33.191406 C 124.347656 33.191406 118.996094 27.835938 118.996094 21.261719 C 118.996094 14.6875 124.347656 9.335938 130.921875 9.335938 Z M 173.402344 206.769531 L 103.132812 206.769531 C 100.558594 206.769531 98.464844 208.863281 98.464844 211.4375 L 98.464844 370.332031 C 98.464844 372.90625 100.558594 375 103.132812 375 L 173.402344 375 C 175.976562 375 178.070312 372.90625 178.070312 370.332031 L 178.070312 211.4375 C 178.070312 208.863281 175.976562 206.769531 173.402344 206.769531 Z M 168.734375 365.664062 L 107.800781 365.664062 L 107.800781 216.105469 L 168.734375 216.105469 Z M 271.867188 164.457031 L 232.5 164.457031 C 234.871094 160.621094 235.160156 155.78125 232.835938 151.59375 L 220.976562 130.238281 L 212.347656 94.542969 C 211.71875 86.910156 202.921875 70.722656 193.179688 53.378906 C 193.070312 53.183594 192.960938 52.988281 192.851562 52.796875 L 198.253906 52.796875 L 208.226562 70.074219 C 211.757812 76.199219 219.640625 78.28125 225.792969 74.734375 C 231.949219 71.179688 234.070312 63.3125 230.539062 57.191406 L 221.53125 41.59375 C 216.183594 32.34375 206.996094 27.027344 196.308594 27.027344 L 172.421875 27.027344 C 166.421875 27.027344 161.164062 28.359375 155.882812 31.207031 L 152.347656 33.113281 C 141.433594 39 134.914062 49.925781 134.914062 62.335938 L 134.914062 87.425781 C 134.914062 87.425781 120.273438 102.066406 120.273438 102.066406 C 118.839844 103.5 117.835938 105.1875 117.230469 106.992188 C 116.640625 107.410156 116.078125 107.886719 115.566406 108.398438 L 100.921875 123.042969 L 90.730469 123.042969 C 88.578125 118.273438 84.828125 114.101562 79.730469 111.269531 C 73.429688 107.777344 66.378906 106.96875 59.882812 109 C 53.683594 110.9375 48.617188 115.324219 45.628906 121.363281 L 24.421875 164.207031 C 21.597656 169.910156 21.078125 176.53125 22.945312 182.542969 L 11.09375 220.675781 L 1.703125 236.941406 C -0.03125 239.953125 -0.460938 243.445312 0.503906 246.785156 C 0.832031 247.921875 1.324219 248.984375 1.9375 249.980469 C 0.769531 250.828125 0.0078125 252.199219 0.0078125 253.753906 L 0.0078125 370.339844 C 0.0078125 372.914062 2.101562 375.007812 4.675781 375.007812 L 74.945312 375.007812 C 77.519531 375.007812 79.613281 372.914062 79.613281 370.339844 L 79.613281 253.753906 C 79.613281 251.179688 77.519531 249.085938 74.945312 249.085938 L 25.363281 249.085938 L 35.320312 231.839844 C 35.492188 231.535156 35.632812 231.222656 35.734375 230.890625 L 45.007812 201.039062 L 64.378906 209.804688 L 60.816406 230.382812 C 59.648438 237.480469 64.488281 243.984375 71.832031 245.1875 C 72.613281 245.320312 73.390625 245.382812 74.167969 245.382812 C 76.890625 245.382812 79.503906 244.589844 81.714844 243.074219 C 84.5625 241.113281 86.445312 238.164062 87.011719 234.757812 L 92.226562 206.6875 C 93.578125 199.386719 89.804688 192.160156 83.042969 189.101562 L 70.78125 183.554688 C 75.164062 175.566406 79.449219 166.445312 83.621094 157.585938 C 85.050781 154.550781 86.421875 151.632812 87.773438 148.808594 L 103.25 148.808594 C 108.789062 148.808594 113.582031 146.824219 117.503906 142.90625 L 133.792969 126.613281 C 134.757812 125.648438 135.558594 124.542969 136.175781 123.328125 C 136.414062 122.847656 136.5625 122.339844 136.632812 121.835938 C 137.304688 121.386719 137.933594 120.871094 138.515625 120.289062 L 152.179688 106.625 C 155.296875 103.507812 157.570312 99.996094 158.976562 96.136719 C 160.914062 99.886719 162.882812 103.589844 164.898438 106.992188 L 154.132812 129.765625 C 151.277344 135.792969 151.492188 142.328125 154.730469 148.164062 L 168.121094 172.296875 C 170.453125 176.5 174.734375 178.832031 179.253906 178.832031 C 181.492188 178.832031 183.796875 178.265625 185.953125 177.066406 C 192.464844 173.457031 194.828125 165.699219 191.34375 159.414062 L 179.539062 138.152344 L 187.90625 120.457031 C 189.007812 120.40625 190.113281 120.28125 191.210938 120.078125 L 194.78125 134.851562 C 195.636719 138.398438 196.8125 141.402344 198.578125 144.59375 L 209.601562 164.464844 L 201.605469 164.464844 C 199.03125 164.464844 196.9375 166.554688 196.9375 169.132812 L 196.9375 370.339844 C 196.9375 372.914062 199.03125 375.007812 201.605469 375.007812 L 271.875 375.007812 C 274.449219 375.007812 276.542969 372.914062 276.542969 370.339844 L 276.542969 169.125 C 276.542969 166.546875 274.449219 164.457031 271.875 164.457031 Z M 70.269531 365.664062 L 9.335938 365.664062 L 9.335938 258.414062 L 70.269531 258.414062 Z M 26.964844 227.613281 L 16.609375 245.546875 C 16.152344 246.339844 15.414062 246.894531 14.53125 247.109375 C 13.554688 247.351562 12.464844 247.171875 11.460938 246.589844 C 10.457031 246.015625 9.75 245.15625 9.46875 244.1875 C 9.210938 243.304688 9.328125 242.386719 9.789062 241.601562 L 19.441406 224.882812 C 19.613281 224.578125 19.753906 224.269531 19.855469 223.933594 L 29.511719 192.851562 C 31.230469 194.394531 33.191406 195.675781 35.351562 196.65625 L 36.433594 197.148438 L 26.964844 227.605469 Z M 60.171875 183.320312 C 59.503906 184.464844 59.347656 185.835938 59.742188 187.101562 C 60.140625 188.371094 61.058594 189.398438 62.273438 189.941406 L 79.195312 197.597656 C 82.070312 198.90625 83.621094 201.871094 83.042969 204.972656 L 77.824219 233.082031 C 77.824219 233.082031 77.816406 233.144531 77.808594 233.175781 C 77.660156 234.078125 77.164062 234.855469 76.414062 235.378906 C 75.582031 235.953125 74.496094 236.164062 73.351562 235.976562 C 71.132812 235.613281 69.703125 233.863281 70.019531 231.941406 L 74.199219 207.835938 C 74.5625 205.746094 73.460938 203.667969 71.523438 202.789062 L 39.203125 188.160156 C 34.894531 186.207031 32.933594 182.847656 32.046875 180.367188 C 30.660156 176.484375 30.925781 172.101562 32.785156 168.34375 L 53.992188 125.5 C 55.867188 121.71875 58.863281 119.089844 62.660156 117.90625 C 64.085938 117.464844 65.5625 117.238281 67.054688 117.238281 C 69.796875 117.238281 72.582031 117.976562 75.195312 119.433594 C 82.640625 123.5625 85.550781 132.152344 81.949219 139.417969 C 79.746094 143.871094 77.519531 148.597656 75.164062 153.609375 C 70.277344 164.003906 65.21875 174.75 60.164062 183.328125 Z M 110.90625 136.300781 C 108.773438 138.429688 106.269531 139.464844 103.257812 139.464844 L 91.914062 139.464844 C 92.597656 137.117188 92.902344 134.726562 92.855469 132.371094 L 102.859375 132.371094 C 104.097656 132.371094 105.289062 131.878906 106.160156 131 L 118.785156 118.367188 C 119.238281 119.019531 119.742188 119.648438 120.320312 120.234375 C 121.46875 121.386719 122.808594 122.289062 124.261719 122.925781 L 110.898438 136.292969 Z M 203.847656 132.65625 L 199.140625 113.160156 C 198.820312 111.839844 197.941406 110.726562 196.734375 110.105469 C 195.527344 109.480469 194.113281 109.417969 192.851562 109.925781 C 190.402344 110.914062 187.890625 111.300781 185.367188 111.085938 C 183.421875 110.921875 181.578125 111.972656 180.746094 113.738281 L 170.074219 136.316406 C 169.425781 137.675781 169.480469 139.261719 170.210938 140.578125 L 183.175781 163.933594 C 184.140625 165.667969 183.382812 167.800781 181.414062 168.898438 C 179.457031 169.988281 177.246094 169.503906 176.28125 167.761719 L 162.890625 143.628906 C 161.125 140.453125 161.015625 137.039062 162.574219 133.746094 L 174.414062 108.703125 C 175.089844 107.273438 174.996094 105.589844 174.15625 104.238281 C 170.929688 99.046875 167.691406 92.675781 164.554688 86.515625 C 163.039062 83.519531 161.601562 80.695312 160.160156 77.988281 C 159.335938 76.4375 157.734375 75.503906 156.039062 75.503906 C 155.664062 75.503906 155.28125 75.550781 154.910156 75.644531 C 152.832031 76.167969 151.371094 78.035156 151.371094 80.171875 L 151.371094 86.015625 C 151.371094 91.53125 149.472656 96.105469 145.574219 100.003906 L 131.910156 113.667969 C 131.257812 114.320312 130.394531 114.679688 129.460938 114.679688 L 129.453125 114.679688 C 128.511719 114.679688 127.617188 114.304688 126.941406 113.628906 C 125.554688 112.242188 125.53125 110.011719 126.894531 108.65625 L 142.90625 92.644531 C 143.785156 91.773438 144.273438 90.582031 144.273438 89.347656 L 144.273438 62.320312 C 144.273438 53.269531 148.839844 45.613281 156.808594 41.3125 L 160.339844 39.40625 C 164.261719 37.289062 167.988281 36.347656 172.445312 36.347656 L 196.332031 36.347656 C 203.589844 36.347656 209.835938 39.949219 213.46875 46.246094 L 222.480469 61.84375 C 223.445312 63.507812 222.84375 65.65625 221.148438 66.636719 C 219.453125 67.617188 217.289062 67.054688 216.332031 65.390625 L 205.011719 45.777344 C 204.179688 44.332031 202.640625 43.445312 200.96875 43.445312 L 184.957031 43.445312 C 183.3125 43.445312 181.796875 44.300781 180.957031 45.707031 C 180.117188 47.117188 180.070312 48.859375 180.832031 50.304688 C 181.820312 52.171875 183.328125 54.84375 185.066406 57.9375 C 190.402344 67.4375 202.898438 89.671875 203.074219 95.375 C 203.082031 95.695312 203.128906 96.015625 203.207031 96.324219 L 212.078125 133.039062 C 212.179688 133.453125 212.328125 133.839844 212.535156 134.207031 L 224.695312 156.113281 C 225.660156 157.851562 224.90625 159.980469 222.9375 161.078125 C 221.925781 161.640625 220.828125 161.800781 219.855469 161.546875 C 218.976562 161.3125 218.246094 160.746094 217.804688 159.941406 L 206.761719 140.050781 C 205.402344 137.589844 204.539062 135.382812 203.878906 132.644531 Z M 267.199219 365.664062 L 206.265625 365.664062 L 206.265625 173.792969 L 267.199219 173.792969 Z M 370.332031 122.148438 L 359.71875 122.148438 L 359.71875 108.65625 C 359.71875 106.082031 357.628906 103.988281 355.050781 103.988281 L 339.863281 103.988281 L 339.863281 7.195312 C 339.863281 4.621094 337.773438 2.527344 335.195312 2.527344 C 332.621094 2.527344 330.527344 4.621094 330.527344 7.195312 L 330.527344 11.085938 C 328.054688 10.332031 325.472656 9.925781 322.859375 9.925781 C 317.449219 9.925781 312.261719 11.554688 307.851562 14.632812 C 305.003906 16.617188 301.664062 17.667969 298.179688 17.667969 C 294.695312 17.667969 291.355469 16.617188 288.507812 14.632812 C 287.085938 13.636719 285.226562 13.523438 283.675781 14.324219 C 282.136719 15.125 281.171875 16.71875 281.171875 18.460938 L 281.171875 54.539062 C 281.171875 56.0625 281.917969 57.496094 283.171875 58.367188 C 287.589844 61.445312 292.78125 63.074219 298.179688 63.074219 C 303.578125 63.074219 308.777344 61.445312 313.195312 58.367188 C 316.042969 56.382812 319.378906 55.332031 322.867188 55.332031 C 325.535156 55.332031 328.179688 55.96875 330.535156 57.175781 L 330.535156 103.980469 L 315.351562 103.980469 C 312.773438 103.980469 310.683594 106.074219 310.683594 108.648438 L 310.683594 122.140625 L 300.070312 122.140625 C 297.496094 122.140625 295.402344 124.230469 295.402344 126.808594 L 295.402344 370.324219 C 295.402344 372.898438 297.496094 374.992188 300.070312 374.992188 L 370.339844 374.992188 C 372.914062 374.992188 375.007812 372.898438 375.007812 370.324219 L 375.007812 126.816406 C 375.007812 124.238281 372.914062 122.148438 370.339844 122.148438 Z M 322.859375 46.003906 C 317.457031 46.003906 312.261719 47.628906 307.851562 50.710938 C 305.011719 52.695312 301.664062 53.746094 298.179688 53.746094 C 295.480469 53.746094 292.867188 53.113281 290.507812 51.910156 L 290.507812 25.859375 C 292.976562 26.617188 295.550781 26.996094 298.179688 26.996094 C 303.578125 26.996094 308.777344 25.371094 313.195312 22.289062 C 316.035156 20.304688 319.378906 19.253906 322.867188 19.253906 C 325.550781 19.253906 328.179688 19.886719 330.535156 21.09375 L 330.535156 47.15625 C 328.054688 46.402344 325.472656 46.003906 322.867188 46.003906 Z M 320.011719 113.324219 L 350.390625 113.324219 L 350.390625 122.148438 L 320.011719 122.148438 Z M 365.664062 365.664062 L 304.730469 365.664062 L 304.730469 131.484375 L 365.664062 131.484375 Z M 365.664062 365.664062 " fill-opacity="1" fill-rule="nonzero"/></svg>