<svg xmlns="http://www.w3.org/2000/svg" xmlns:xlink="http://www.w3.org/1999/xlink" width="500" zoomAndPan="magnify" viewBox="0 0 375 374.999991" height="500" preserveAspectRatio="xMidYMid meet" version="1.0"><path fill="#000000" d="M 244.371094 1.691406 C 238.476562 4.917969 235.910156 12.988281 239.046875 18.972656 C 240.757812 22.296875 244.847656 25.617188 247.222656 25.617188 C 248.933594 25.617188 249.027344 27.042969 249.027344 59.328125 C 249.027344 77.84375 248.742188 93.035156 248.457031 93.035156 C 248.171875 93.035156 246.082031 91.800781 243.894531 90.28125 C 239.523438 87.246094 224.316406 79.457031 220.800781 78.414062 C 219.089844 77.84375 218.613281 78.128906 218.613281 79.457031 C 218.707031 80.691406 221.085938 82.210938 226.976562 84.964844 C 247.222656 94.269531 264.046875 108.894531 274.882812 126.460938 C 277.449219 130.640625 280.394531 132.539062 280.394531 129.972656 C 280.394531 128.550781 270.984375 114.6875 266.519531 109.367188 L 263 105.382812 L 305.011719 105.382812 L 306.535156 108.230469 C 308.246094 111.554688 313.09375 114.875 316.324219 114.875 C 321.550781 114.875 326.96875 109.558594 326.96875 104.429688 C 326.96875 95.695312 314.992188 90.566406 308.816406 96.738281 C 307.292969 98.257812 306.058594 100.253906 306.058594 101.011719 C 306.058594 102.34375 303.398438 102.53125 283.152344 102.53125 L 260.148438 102.53125 L 256.0625 99.113281 L 251.878906 95.789062 L 251.878906 26.09375 L 255.683594 24.480469 C 266.042969 20.207031 265.664062 5.773438 255.015625 1.3125 C 250.929688 -0.492188 248.171875 -0.398438 244.371094 1.691406 Z M 256.15625 5.296875 C 257.488281 6.152344 259.007812 8.433594 259.578125 10.425781 C 260.53125 13.558594 260.433594 14.507812 258.820312 17.261719 C 253.589844 26.285156 241.425781 23.246094 241.425781 12.800781 C 241.425781 5.203125 249.695312 1.027344 256.15625 5.296875 Z M 321.550781 99.875 C 327.347656 106.710938 317.652344 115.160156 311.285156 108.703125 C 308.625 106.140625 308.433594 104.714844 309.957031 101.203125 C 312.046875 96.644531 318.128906 95.886719 321.550781 99.875 Z M 321.550781 99.875 " fill-opacity="1" fill-rule="nonzero"/><path fill="#000000" d="M 247.699219 10.046875 C 244.847656 12.894531 246.460938 17.074219 250.453125 17.074219 C 254.828125 17.074219 256.15625 12.515625 252.640625 10.046875 C 249.980469 8.148438 249.503906 8.148438 247.699219 10.046875 Z M 247.699219 10.046875 " fill-opacity="1" fill-rule="nonzero"/><path fill="#000000" d="M 194.945312 9.003906 C 187.816406 15.078125 189.8125 27.234375 198.460938 29.890625 L 200.554688 30.460938 L 200.554688 100.917969 L 197.035156 100.347656 C 178.882812 97.5 162.25 99.589844 145.710938 106.898438 C 128.980469 114.308594 112.824219 129.972656 104.078125 147.160156 C 101.039062 153.238281 97.902344 161.878906 97.902344 164.441406 C 97.902344 168.144531 100.46875 165.867188 102.082031 160.644531 C 107.308594 144.121094 120.332031 126.652344 134.398438 117.34375 C 141.71875 112.503906 153.980469 106.898438 162.058594 104.8125 C 169.09375 102.914062 192.570312 102.246094 197.988281 103.765625 L 200.554688 104.429688 L 200.554688 126.9375 L 195.609375 125.703125 C 189.054688 123.992188 185.347656 123.992188 185.347656 125.796875 C 185.347656 126.652344 186.675781 127.316406 188.957031 127.695312 C 211.960938 131.589844 229.257812 145.832031 237.433594 167.859375 C 239.238281 172.609375 239.902344 176.691406 240.285156 184.382812 L 240.757812 194.636719 L 261.003906 194.636719 C 278.492188 194.636719 281.34375 194.449219 281.34375 193.214844 C 281.34375 191.980469 278.683594 191.789062 262.90625 191.789062 L 244.5625 191.789062 L 243.992188 184.859375 C 242.46875 163.96875 232.203125 145.640625 216.238281 134.910156 C 212.246094 132.253906 207.871094 129.785156 206.636719 129.5 C 204.355469 128.929688 204.355469 128.835938 204.355469 117.15625 L 204.355469 105.476562 L 209.394531 107.183594 C 236.007812 116.394531 258.628906 142.507812 263.667969 169.949219 C 264.425781 174.128906 265.28125 176.121094 266.234375 176.121094 C 269.371094 176.121094 265.566406 160.167969 259.484375 147.921875 C 252.355469 133.488281 241.042969 121.046875 227.359375 112.21875 C 221.179688 108.230469 208.441406 102.53125 205.875 102.53125 C 204.546875 102.53125 204.355469 98.640625 204.355469 66.640625 L 204.355469 30.839844 L 207.492188 29.417969 C 215.476562 25.714844 217.09375 15.648438 210.628906 9.761719 C 207.777344 7.101562 206.542969 6.628906 202.550781 6.628906 C 198.9375 6.628906 197.226562 7.199219 194.945312 9.003906 Z M 208.253906 12.230469 C 213.957031 18.023438 210.4375 27.042969 202.453125 27.042969 C 199.222656 27.042969 197.988281 26.472656 196.179688 24.382812 C 188.863281 15.933594 200.363281 4.347656 208.253906 12.230469 Z M 208.253906 12.230469 " fill-opacity="1" fill-rule="nonzero"/><path fill="#000000" d="M 199.222656 16.597656 C 198.175781 19.257812 198.558594 20.777344 200.554688 21.820312 C 203.5 23.339844 206.445312 21.441406 206.066406 18.210938 C 205.875 16.125 205.210938 15.554688 202.835938 15.363281 C 200.742188 15.175781 199.699219 15.554688 199.222656 16.597656 Z M 199.222656 16.597656 " fill-opacity="1" fill-rule="nonzero"/><path fill="#000000" d="M 291.039062 31.316406 C 287.429688 33.5 285.148438 38.152344 285.148438 43.375 C 285.148438 46.222656 284.671875 47.171875 283.054688 47.933594 C 280.964844 48.789062 280.871094 49.453125 280.585938 60.277344 C 280.203125 77.652344 278.398438 76.039062 297.789062 75.753906 L 314.136719 75.46875 L 314.421875 61.988281 C 314.613281 49.167969 314.613281 48.503906 312.710938 47.933594 C 311.191406 47.457031 310.8125 46.507812 310.8125 43.375 C 310.8125 32.550781 299.976562 25.902344 291.039062 31.316406 Z M 301.78125 33.59375 C 305.773438 35.304688 307.007812 37.582031 307.007812 43.1875 L 307.007812 47.554688 L 297.789062 47.269531 L 288.472656 46.984375 L 288.757812 42.710938 C 289.234375 37.203125 290.375 35.210938 293.988281 33.691406 C 297.789062 31.980469 297.882812 31.980469 301.78125 33.59375 Z M 311.570312 61.890625 L 311.855469 73.097656 L 284.195312 73.097656 L 284.195312 50.210938 L 297.789062 50.496094 L 311.285156 50.78125 Z M 311.570312 61.890625 " fill-opacity="1" fill-rule="nonzero"/><path fill="#000000" d="M 294.746094 56.765625 C 294.175781 57.808594 294.175781 58.949219 294.746094 59.898438 C 295.222656 60.5625 295.507812 62.746094 295.414062 64.550781 C 295.128906 67.589844 295.414062 67.875 297.882812 68.160156 C 300.546875 68.445312 300.546875 68.445312 299.976562 65.121094 C 299.59375 63.03125 299.785156 61.039062 300.546875 59.898438 C 301.402344 58.472656 301.402344 57.714844 300.449219 56.574219 C 298.738281 54.582031 295.886719 54.675781 294.746094 56.765625 Z M 294.746094 56.765625 " fill-opacity="1" fill-rule="nonzero"/><path fill="#000000" d="M 155.878906 35.113281 L 155.878906 38.914062 L 152.078125 38.914062 C 146.945312 38.914062 146.757812 41.476562 151.886719 41.953125 C 155.308594 42.234375 155.40625 42.332031 155.691406 46.222656 C 155.878906 48.976562 156.449219 50.308594 157.304688 50.308594 C 158.160156 50.308594 158.730469 48.976562 158.921875 46.222656 C 159.207031 42.234375 159.207031 42.234375 163.292969 41.953125 C 168.617188 41.570312 168.140625 39.484375 162.722656 39.101562 C 158.730469 38.816406 158.730469 38.816406 158.730469 35.019531 C 158.730469 32.359375 158.351562 31.316406 157.304688 31.316406 C 156.261719 31.316406 155.878906 32.359375 155.878906 35.113281 Z M 155.878906 35.113281 " fill-opacity="1" fill-rule="nonzero"/><path fill="#000000" d="M 32.316406 38.4375 C 32.316406 39.671875 34.027344 39.863281 44.957031 39.671875 C 61.496094 39.292969 61.308594 37.582031 44.671875 37.203125 C 34.027344 37.011719 32.316406 37.203125 32.316406 38.4375 Z M 32.316406 38.4375 " fill-opacity="1" fill-rule="nonzero"/><path fill="#000000" d="M 32.316406 44.136719 C 32.316406 45.273438 33.648438 45.558594 38.496094 45.558594 C 43.34375 45.558594 44.671875 45.273438 44.671875 44.136719 C 44.671875 42.996094 43.34375 42.710938 38.496094 42.710938 C 33.648438 42.710938 32.316406 42.996094 32.316406 44.136719 Z M 32.316406 44.136719 " fill-opacity="1" fill-rule="nonzero"/><path fill="#000000" d="M 48.476562 44.039062 C 48.476562 45.179688 49.617188 45.558594 53.324219 45.558594 C 59.597656 45.558594 59.214844 43.28125 52.941406 42.902344 C 49.425781 42.710938 48.476562 42.902344 48.476562 44.039062 Z M 48.476562 44.039062 " fill-opacity="1" fill-rule="nonzero"/><path fill="#000000" d="M 105.03125 45.371094 C 101.132812 47.839844 99.515625 50.023438 100.183594 51.921875 C 100.753906 53.25 101.226562 53.0625 103.890625 50.496094 C 108.070312 46.507812 112.15625 46.414062 116.054688 50.308594 C 118.8125 53.0625 118.8125 53.15625 117.386719 56.574219 C 116.625 58.472656 115.960938 60.183594 115.960938 60.371094 C 115.960938 60.5625 115.007812 61.132812 113.964844 61.796875 C 112.347656 62.554688 111.777344 62.554688 111.113281 61.605469 C 110.542969 60.65625 110.160156 60.65625 108.925781 61.605469 C 106.929688 63.222656 105.03125 61.796875 103.414062 57.332031 C 101.988281 53.25 99.800781 53.0625 99.800781 57.050781 C 99.800781 59.234375 100.65625 60.941406 103.035156 63.125 C 105.316406 65.214844 106.453125 67.210938 106.644531 69.394531 C 106.929688 72.242188 107.308594 72.621094 109.972656 72.90625 C 112.917969 73.191406 113.109375 73 113.679688 69.296875 C 114.058594 66.734375 115.105469 64.929688 116.433594 63.980469 C 119.382812 62.082031 120.808594 58.285156 120.332031 53.441406 C 119.953125 48.882812 118.714844 46.984375 114.914062 44.988281 C 111.398438 43.1875 108.449219 43.28125 105.03125 45.371094 Z M 105.03125 45.371094 " fill-opacity="1" fill-rule="nonzero"/><path fill="#000000" d="M 213.859375 47.933594 C 213.859375 49.167969 215.855469 49.359375 226.21875 49.359375 C 236.578125 49.359375 238.574219 49.167969 238.574219 47.933594 C 238.574219 46.699219 236.578125 46.507812 226.21875 46.507812 C 215.855469 46.507812 213.859375 46.699219 213.859375 47.933594 Z M 213.859375 47.933594 " fill-opacity="1" fill-rule="nonzero"/><path fill="#000000" d="M 213.859375 53.628906 C 213.859375 54.769531 215.191406 55.054688 220.039062 55.054688 C 224.886719 55.054688 226.21875 54.769531 226.21875 53.628906 C 226.21875 52.492188 224.886719 52.207031 220.039062 52.207031 C 215.191406 52.207031 213.859375 52.492188 213.859375 53.628906 Z M 213.859375 53.628906 " fill-opacity="1" fill-rule="nonzero"/><path fill="#000000" d="M 229.734375 52.777344 C 228.402344 54.105469 230.304688 55.054688 234.390625 55.054688 C 237.433594 55.054688 238.574219 54.675781 238.574219 53.628906 C 238.574219 52.585938 237.527344 52.207031 234.484375 52.207031 C 232.203125 52.207031 230.019531 52.492188 229.734375 52.777344 Z M 229.734375 52.777344 " fill-opacity="1" fill-rule="nonzero"/><path fill="#000000" d="M 55.222656 64.929688 C 50.375 67.683594 48.761719 75.566406 52.277344 80.027344 C 54.75 83.160156 59.785156 84.871094 63.019531 83.636719 C 65.296875 82.78125 66.058594 83.445312 78.128906 98.070312 C 85.164062 106.519531 91.246094 113.925781 91.53125 114.589844 C 91.914062 115.257812 90.582031 117.914062 88.394531 120.761719 C 83.167969 127.601562 75.660156 142.699219 72.710938 152.195312 C 70.335938 160.359375 67.484375 174.886719 67.484375 179.539062 L 67.484375 182.292969 L 46.667969 182.292969 L 44.769531 178.117188 C 41.632812 170.804688 32.507812 167.859375 25.851562 171.847656 C 13.308594 179.445312 19.582031 198.625 34.121094 197.203125 C 40.015625 196.539062 44.007812 193.023438 46.003906 186.757812 C 46.574219 185.144531 48 185.046875 70.527344 185.332031 L 94.574219 185.617188 L 94.765625 188.464844 C 95.714844 199.671875 98.566406 211.066406 103.128906 221.414062 C 103.792969 223.03125 101.609375 223.125 64.726562 223.125 C 29.75 223.125 25.664062 222.933594 25.664062 221.605469 C 25.664062 220.847656 24.425781 218.851562 22.90625 217.332031 C 20.625 215.054688 19.296875 214.578125 15.683594 214.578125 C 12.070312 214.578125 10.742188 215.054688 8.460938 217.332031 C 6.273438 219.613281 5.703125 220.941406 5.703125 224.359375 C 5.703125 235.46875 19.105469 238.980469 24.808594 229.296875 L 26.804688 225.972656 L 105.21875 225.972656 L 108.832031 231.859375 C 113.488281 239.265625 124.230469 250.660156 131.832031 255.980469 C 138.582031 260.820312 151.414062 267.089844 158.066406 268.703125 L 162.535156 269.84375 L 162.535156 278.769531 C 162.535156 286.648438 162.34375 287.597656 160.632812 288.167969 C 157.019531 289.308594 153.980469 294.152344 153.980469 298.804688 C 153.980469 302.410156 154.453125 303.550781 157.210938 306.304688 C 161.582031 310.671875 166.714844 310.863281 171.46875 306.589844 C 177.550781 301.273438 176.601562 292.441406 169.566406 289.117188 L 166.335938 287.597656 L 166.335938 279.054688 C 166.335938 270.792969 166.335938 270.601562 168.523438 270.980469 C 188.671875 275.066406 215.570312 268.132812 233.628906 254.078125 C 242.183594 247.433594 252.164062 236.324219 254.828125 230.4375 C 255.683594 228.539062 256.632812 227.871094 258.722656 227.871094 C 265.09375 227.871094 267.46875 219.230469 262.242188 215.242188 C 256.539062 211.066406 249.3125 216.953125 251.785156 223.789062 C 252.832031 226.542969 252.640625 227.300781 250.550781 230.910156 C 249.21875 233.191406 246.460938 236.894531 244.371094 239.265625 L 240.664062 243.539062 L 235.53125 238.601562 C 230.78125 233.855469 230.496094 233.378906 230.78125 229.488281 C 231.066406 226.066406 230.683594 225.023438 228.5 222.839844 C 224.886719 219.230469 218.613281 219.230469 215.285156 222.746094 C 208.347656 230.246094 217.472656 242.019531 226.40625 237.273438 C 228.117188 236.417969 228.972656 236.796875 232.964844 240.785156 C 235.53125 243.351562 237.621094 245.628906 237.621094 246.007812 C 237.621094 247.242188 224.980469 256.265625 218.613281 259.585938 C 215.191406 261.390625 208.539062 264.050781 203.878906 265.472656 C 196.371094 267.753906 193.710938 268.039062 182.019531 268.132812 C 166.714844 268.132812 159.96875 266.804688 147.707031 261.105469 C 136.777344 256.074219 129.742188 251.042969 121.566406 242.304688 C 107.878906 227.683594 99.707031 209.453125 98.660156 190.839844 L 98.375 185.617188 L 111.015625 185.332031 L 123.5625 185.046875 L 123.5625 189.226562 C 123.5625 196.632812 129.550781 214.578125 132.023438 214.578125 C 134.019531 214.578125 134.019531 212.585938 132.117188 208.785156 C 129.078125 202.898438 127.460938 196.824219 126.699219 189.132812 L 126.128906 182.292969 L 98.851562 182.292969 C 83.832031 182.292969 71.382812 182.105469 71.191406 181.820312 C 70.242188 180.964844 72.238281 167.480469 74.519531 158.269531 C 82.3125 127.695312 104.746094 100.253906 133.449219 86.390625 C 145.902344 80.3125 157.304688 77.085938 171.277344 75.753906 C 179.261719 74.902344 182.496094 74.234375 182.496094 73.382812 C 182.496094 71.671875 171.660156 71.765625 161.394531 73.570312 C 139.628906 77.371094 119.667969 87.71875 102.84375 103.863281 C 97.996094 108.515625 93.910156 112.121094 93.8125 111.933594 C 93.527344 111.648438 85.640625 101.867188 72.046875 85.34375 C 68.53125 80.976562 68.53125 80.882812 69.957031 77.9375 C 74.136719 69.488281 63.683594 60.183594 55.222656 64.929688 Z M 64.539062 68.917969 C 68.339844 72.050781 68.53125 75.945312 65.011719 78.699219 C 61.6875 81.359375 58.457031 81.167969 55.605469 78.320312 C 52.46875 75.28125 52.65625 72.621094 55.984375 69.203125 C 59.40625 65.785156 60.832031 65.785156 64.539062 68.917969 Z M 37.828125 174.984375 C 42.105469 177.070312 44.007812 183.8125 41.726562 188.277344 C 39.921875 191.789062 36.785156 193.6875 32.695312 193.6875 C 27.753906 193.6875 24.140625 191.03125 22.714844 186.1875 C 21.007812 180.394531 23.953125 175.550781 30.414062 173.464844 C 32.125 172.894531 34.789062 173.464844 37.828125 174.984375 Z M 20.4375 219.800781 C 21.765625 221.035156 22.8125 223.21875 22.8125 224.550781 C 22.8125 225.878906 21.765625 228.0625 20.4375 229.296875 C 19.199219 230.625 17.015625 231.671875 15.683594 231.671875 C 14.351562 231.671875 12.167969 230.625 10.929688 229.296875 C 9.601562 228.0625 8.554688 225.878906 8.554688 224.550781 C 8.554688 223.21875 9.601562 221.035156 10.929688 219.800781 C 12.167969 218.472656 14.351562 217.425781 15.683594 217.425781 C 17.015625 217.425781 19.199219 218.472656 20.4375 219.800781 Z M 261.386719 218.851562 C 262.8125 220.65625 261.765625 223.789062 259.390625 224.550781 C 255.777344 225.6875 253.210938 221.226562 255.871094 218.566406 C 257.394531 217.046875 259.960938 217.144531 261.386719 218.851562 Z M 226.121094 225.59375 C 228.59375 228.726562 228.59375 229.867188 226.40625 232.621094 C 222.699219 237.179688 214.90625 233.570312 216.238281 227.96875 C 217.472656 222.746094 222.890625 221.511719 226.121094 225.59375 Z M 170.042969 293.960938 C 172.609375 297.285156 172.515625 300.226562 169.851562 303.457031 C 168.238281 305.355469 166.714844 306.019531 164.433594 306.019531 C 162.152344 306.019531 160.632812 305.355469 159.015625 303.457031 C 156.355469 300.226562 156.261719 297.285156 158.828125 293.960938 C 160.347656 292.0625 161.582031 291.492188 164.433594 291.492188 C 167.285156 291.492188 168.523438 292.0625 170.042969 293.960938 Z M 170.042969 293.960938 " fill-opacity="1" fill-rule="nonzero"/><path fill="#000000" d="M 29.464844 178.972656 C 28.800781 179.730469 28.515625 181.535156 28.800781 182.957031 C 29.085938 184.667969 28.800781 186.1875 27.847656 187.328125 C 25.757812 189.511719 26.992188 190.460938 29.941406 188.941406 C 31.9375 187.898438 32.695312 187.898438 34.691406 188.941406 C 37.355469 190.367188 38.875 189.605469 37.164062 187.707031 C 36.59375 186.851562 36.402344 185.144531 36.785156 183.242188 C 37.257812 180.773438 36.972656 179.824219 35.644531 178.78125 C 33.265625 177.167969 30.890625 177.167969 29.464844 178.972656 Z M 29.464844 178.972656 " fill-opacity="1" fill-rule="nonzero"/><path fill="#000000" d="M 161.964844 296.621094 C 160.917969 299.375 161.964844 301.460938 164.433594 301.460938 C 166.429688 301.460938 166.8125 300.988281 166.8125 298.613281 C 166.8125 296.335938 166.335938 295.671875 164.625 295.480469 C 163.390625 295.289062 162.34375 295.765625 161.964844 296.621094 Z M 161.964844 296.621094 " fill-opacity="1" fill-rule="nonzero"/><path fill="#000000" d="M 34.21875 117.25 C 34.21875 118.484375 36.214844 118.675781 46.574219 118.675781 C 56.933594 118.675781 58.929688 118.484375 58.929688 117.25 C 58.929688 116.015625 56.933594 115.824219 46.574219 115.824219 C 36.214844 115.824219 34.21875 116.015625 34.21875 117.25 Z M 34.21875 117.25 " fill-opacity="1" fill-rule="nonzero"/><path fill="#000000" d="M 331.722656 120.097656 C 331.722656 121.332031 333.71875 121.523438 344.078125 121.523438 C 354.4375 121.523438 356.433594 121.332031 356.433594 120.097656 C 356.433594 118.863281 354.4375 118.675781 344.078125 118.675781 C 333.71875 118.675781 331.722656 118.863281 331.722656 120.097656 Z M 331.722656 120.097656 " fill-opacity="1" fill-rule="nonzero"/><path fill="#000000" d="M 33.933594 122.1875 C 32.316406 123.800781 33.742188 124.371094 39.445312 124.371094 C 44.292969 124.371094 45.625 124.085938 45.625 122.949219 C 45.625 121.808594 44.386719 121.523438 40.109375 121.523438 C 37.070312 121.523438 34.21875 121.808594 33.933594 122.1875 Z M 33.933594 122.1875 " fill-opacity="1" fill-rule="nonzero"/><path fill="#000000" d="M 49.425781 122.949219 C 49.425781 123.992188 50.566406 124.371094 54.179688 124.371094 C 57.789062 124.371094 58.929688 123.992188 58.929688 122.949219 C 58.929688 121.902344 57.789062 121.523438 54.179688 121.523438 C 50.566406 121.523438 49.425781 121.902344 49.425781 122.949219 Z M 49.425781 122.949219 " fill-opacity="1" fill-rule="nonzero"/><path fill="#000000" d="M 172.988281 125.132812 C 172.988281 127.503906 173.65625 128.074219 175.9375 127.503906 C 178.691406 126.746094 178.3125 123.421875 175.367188 123.421875 C 173.65625 123.421875 172.988281 123.898438 172.988281 125.132812 Z M 172.988281 125.132812 " fill-opacity="1" fill-rule="nonzero"/><path fill="#000000" d="M 331.722656 125.796875 C 331.722656 126.9375 332.957031 127.21875 337.996094 127.21875 C 342.558594 127.21875 344.171875 126.9375 343.886719 125.984375 C 343.601562 125.320312 341.226562 124.75 337.613281 124.5625 C 332.765625 124.371094 331.722656 124.5625 331.722656 125.796875 Z M 331.722656 125.796875 " fill-opacity="1" fill-rule="nonzero"/><path fill="#000000" d="M 347.59375 125.035156 C 345.980469 126.554688 347.308594 127.21875 351.683594 127.21875 C 355.292969 127.21875 356.433594 126.839844 356.433594 125.796875 C 356.433594 124.75 355.390625 124.371094 352.347656 124.371094 C 350.066406 124.371094 347.878906 124.65625 347.59375 125.035156 Z M 347.59375 125.035156 " fill-opacity="1" fill-rule="nonzero"/><path fill="#000000" d="M 161.394531 125.890625 C 160.632812 126.554688 161.582031 130.070312 162.535156 130.070312 C 164.625 130.070312 166.335938 128.738281 166.335938 127.125 C 166.335938 125.890625 165.671875 125.320312 164.148438 125.320312 C 162.914062 125.320312 161.679688 125.605469 161.394531 125.890625 Z M 161.394531 125.890625 " fill-opacity="1" fill-rule="nonzero"/><path fill="#000000" d="M 151.414062 129.785156 C 150.082031 130.257812 149.703125 133.488281 150.9375 134.152344 C 151.316406 134.4375 152.554688 134.246094 153.695312 133.773438 C 155.121094 133.296875 155.59375 132.441406 155.214844 131.113281 C 154.738281 129.121094 153.695312 128.835938 151.414062 129.785156 Z M 151.414062 129.785156 " fill-opacity="1" fill-rule="nonzero"/><path fill="#000000" d="M 141.148438 136.144531 C 139.34375 137.476562 139.34375 137.664062 140.957031 139.28125 C 142.480469 140.800781 142.667969 140.800781 144.191406 139.28125 C 145.617188 137.855469 145.710938 137.476562 144.378906 136.242188 C 143.144531 135.007812 142.765625 135.007812 141.148438 136.144531 Z M 141.148438 136.144531 " fill-opacity="1" fill-rule="nonzero"/><path fill="#000000" d="M 292.65625 140.609375 C 292.085938 140.894531 291.800781 144.503906 291.992188 148.679688 L 292.277344 156.183594 L 317.84375 156.464844 C 335.902344 156.65625 343.792969 156.371094 344.648438 155.613281 C 346.359375 154.1875 346.453125 141.9375 344.839844 140.800781 C 343.414062 139.945312 294.082031 139.753906 292.65625 140.609375 Z M 325.066406 148.585938 L 325.066406 153.808594 L 294.652344 153.808594 L 294.652344 143.363281 L 325.066406 143.363281 Z M 332.671875 148.585938 C 332.671875 149.34375 332.007812 150.007812 331.246094 150.007812 C 330.484375 150.007812 329.820312 149.34375 329.820312 148.585938 C 329.820312 147.824219 330.484375 147.160156 331.246094 147.160156 C 332.007812 147.160156 332.671875 147.824219 332.671875 148.585938 Z M 339.324219 148.585938 C 339.324219 149.34375 338.660156 150.007812 337.898438 150.007812 C 337.140625 150.007812 336.472656 149.34375 336.472656 148.585938 C 336.472656 147.824219 337.140625 147.160156 337.898438 147.160156 C 338.660156 147.160156 339.324219 147.824219 339.324219 148.585938 Z M 339.324219 148.585938 " fill-opacity="1" fill-rule="nonzero"/><path fill="#000000" d="M 297.695312 146.304688 C 297.882812 146.875 302.160156 147.351562 308.246094 147.636719 C 316.511719 147.824219 318.414062 147.636719 318.414062 146.589844 C 318.414062 145.546875 316.226562 145.261719 307.863281 145.261719 C 300.925781 145.261719 297.503906 145.640625 297.695312 146.304688 Z M 297.695312 146.304688 " fill-opacity="1" fill-rule="nonzero"/><path fill="#000000" d="M 298.453125 150.484375 C 298.453125 151.625 300.070312 151.910156 308.53125 151.910156 C 316.132812 151.910156 318.507812 151.625 318.222656 150.675781 C 317.9375 149.914062 314.804688 149.441406 308.148438 149.25 C 299.976562 149.058594 298.453125 149.25 298.453125 150.484375 Z M 298.453125 150.484375 " fill-opacity="1" fill-rule="nonzero"/><path fill="#000000" d="M 132.59375 144.3125 C 130.976562 146.117188 130.976562 146.402344 132.402344 147.824219 C 133.640625 149.058594 134.210938 149.15625 135.351562 148.109375 C 137.25 146.6875 137.25 144.882812 135.636719 143.457031 C 134.589844 142.699219 133.925781 142.886719 132.59375 144.3125 Z M 132.59375 144.3125 " fill-opacity="1" fill-rule="nonzero"/><path fill="#000000" d="M 0 147.636719 C 0 148.871094 1.804688 149.058594 12.546875 148.871094 C 21.480469 148.679688 25.1875 148.207031 25.472656 147.351562 C 25.757812 146.496094 22.8125 146.210938 12.925781 146.210938 C 1.996094 146.210938 0 146.402344 0 147.636719 Z M 0 147.636719 " fill-opacity="1" fill-rule="nonzero"/><path fill="#000000" d="M 176.125 150.484375 C 169.09375 156.371094 162.058594 158.746094 150.746094 159.316406 L 141.339844 159.695312 L 141.910156 174.128906 C 142.859375 199.957031 148.65625 213.914062 163.199219 226.066406 C 168.710938 230.625 178.691406 236.417969 181.070312 236.417969 C 184.207031 236.417969 196.085938 228.632812 202.074219 222.746094 C 214.144531 210.6875 218.519531 198.4375 219.277344 174.886719 L 219.847656 159.503906 L 212.816406 159.503906 C 201.410156 159.503906 192.1875 156.183594 184.109375 149.15625 L 181.070312 146.496094 Z M 197.988281 160.929688 C 200.648438 161.785156 206.066406 162.636719 209.964844 163.019531 L 216.996094 163.589844 L 216.425781 175.550781 C 216.046875 182.105469 215.097656 190.269531 214.335938 193.6875 C 212.246094 202.140625 207.207031 212.203125 201.980469 218.09375 C 197.320312 223.410156 184.207031 232.621094 181.355469 232.621094 C 178.21875 232.621094 168.902344 226.636719 162.4375 220.5625 C 150.9375 209.734375 146.660156 198.4375 145.710938 176.976562 L 145.140625 163.589844 L 152.171875 163.019531 C 161.109375 162.355469 169.566406 159.410156 176.03125 154.851562 L 181.070312 151.339844 L 187.058594 155.421875 C 190.289062 157.605469 195.230469 160.074219 197.988281 160.929688 Z M 197.988281 160.929688 " fill-opacity="1" fill-rule="nonzero"/><path fill="#000000" d="M 176.507812 160.074219 C 171.660156 163.304688 163.390625 166.058594 155.878906 166.910156 L 149.703125 167.578125 L 149.988281 176.121094 C 150.746094 199.386719 159.300781 215.8125 175.554688 225.117188 L 180.878906 228.15625 L 185.25 225.878906 C 190.953125 222.839844 199.699219 214.671875 203.40625 208.882812 C 208.347656 201.191406 211.105469 191.03125 211.675781 178.210938 L 212.246094 167.101562 L 208.539062 167.101562 C 202.835938 167.101562 194.089844 164.539062 187.4375 160.929688 C 184.207031 159.125 181.164062 157.605469 180.785156 157.605469 C 180.402344 157.605469 178.503906 158.746094 176.507812 160.074219 Z M 180.59375 192.738281 C 180.59375 218.09375 180.402344 223.125 179.261719 223.125 C 176.886719 223.125 166.714844 214.957031 163.199219 210.019531 C 161.203125 207.457031 158.730469 203.277344 157.6875 200.808594 C 155.214844 195.207031 153.125 183.8125 153.027344 175.835938 L 153.027344 169.949219 L 156.734375 169.949219 C 160.917969 169.949219 170.898438 167.007812 175.839844 164.253906 C 177.648438 163.304688 179.453125 162.449219 179.929688 162.355469 C 180.308594 162.355469 180.59375 176.027344 180.59375 192.738281 Z M 180.59375 192.738281 " fill-opacity="1" fill-rule="nonzero"/><path fill="#000000" d="M 0 153.332031 C 0 154.566406 1.046875 154.757812 5.894531 154.566406 C 9.503906 154.378906 11.882812 153.808594 12.167969 153.046875 C 12.453125 152.195312 10.835938 151.910156 6.273438 151.910156 C 1.234375 151.910156 0 152.195312 0 153.332031 Z M 0 153.332031 " fill-opacity="1" fill-rule="nonzero"/><path fill="#000000" d="M 15.875 152.574219 C 14.257812 154.09375 15.589844 154.757812 20.4375 154.757812 C 24.425781 154.757812 25.664062 154.472656 25.664062 153.332031 C 25.664062 152.289062 24.523438 151.910156 21.101562 151.910156 C 18.535156 151.910156 16.160156 152.195312 15.875 152.574219 Z M 15.875 152.574219 " fill-opacity="1" fill-rule="nonzero"/><path fill="#000000" d="M 125.75 154.09375 C 124.894531 155.898438 124.988281 156.5625 126.511719 157.417969 C 127.9375 158.367188 128.410156 158.175781 129.265625 156.5625 C 130.121094 155.136719 130.027344 154.28125 129.171875 153.238281 C 127.652344 151.339844 126.890625 151.527344 125.75 154.09375 Z M 125.75 154.09375 " fill-opacity="1" fill-rule="nonzero"/><path fill="#000000" d="M 292.75 159.503906 C 292.085938 159.886719 291.800781 163.207031 291.992188 167.671875 L 292.277344 175.171875 L 345.503906 175.171875 L 345.789062 167.765625 C 345.980469 162.449219 345.695312 160.359375 344.839844 159.980469 C 342.746094 159.316406 293.796875 158.839844 292.75 159.503906 Z M 325.066406 167.578125 L 325.066406 172.796875 L 294.652344 172.796875 L 294.652344 162.355469 L 325.066406 162.355469 Z M 333.242188 167.195312 C 334.003906 168.527344 331.53125 170.140625 330.390625 169 C 329.535156 168.144531 330.390625 166.152344 331.722656 166.152344 C 332.195312 166.152344 332.863281 166.625 333.242188 167.195312 Z M 339.894531 167.195312 C 340.847656 168.8125 338.660156 170.613281 337.328125 169.285156 C 336.1875 168.144531 336.949219 166.152344 338.375 166.152344 C 338.851562 166.152344 339.515625 166.625 339.894531 167.195312 Z M 339.894531 167.195312 " fill-opacity="1" fill-rule="nonzero"/><path fill="#000000" d="M 298.167969 163.871094 C 296.363281 165.675781 298.359375 166.152344 308.054688 166.152344 C 316.039062 166.152344 318.507812 165.867188 318.222656 164.917969 C 317.75 163.683594 299.40625 162.734375 298.167969 163.871094 Z M 298.167969 163.871094 " fill-opacity="1" fill-rule="nonzero"/><path fill="#000000" d="M 298.167969 168.621094 C 296.363281 170.425781 298.359375 170.898438 308.054688 170.898438 C 316.039062 170.898438 318.507812 170.613281 318.222656 169.664062 C 317.75 168.429688 299.40625 167.480469 298.167969 168.621094 Z M 298.167969 168.621094 " fill-opacity="1" fill-rule="nonzero"/><path fill="#000000" d="M 120.425781 165.109375 C 119.855469 167.480469 123.375 169 124.609375 167.007812 C 125.75 165.109375 125.179688 163.777344 122.898438 163.492188 C 121.566406 163.304688 120.808594 163.871094 120.425781 165.109375 Z M 120.425781 165.109375 " fill-opacity="1" fill-rule="nonzero"/><path fill="#000000" d="M 292.464844 179.160156 C 292.085938 179.445312 291.800781 183.054688 291.800781 187.136719 C 291.800781 192.929688 292.085938 194.542969 293.320312 195.019531 C 294.175781 195.304688 299.5 195.585938 305.203125 195.585938 L 315.5625 195.585938 L 315.5625 199.859375 C 315.5625 203.089844 315.183594 204.132812 314.136719 204.132812 C 313.28125 204.132812 312.332031 204.894531 312.046875 205.746094 C 311 208.5 309.765625 208.882812 301.589844 208.882812 C 295.222656 208.882812 293.703125 209.167969 293.703125 210.304688 C 293.703125 211.445312 295.316406 211.730469 302.730469 211.730469 C 311.097656 211.730469 311.761719 211.824219 311.761719 213.628906 C 311.761719 215.339844 312.425781 215.527344 317.367188 215.527344 C 322.121094 215.527344 322.976562 215.242188 323.453125 213.628906 C 323.925781 211.921875 324.78125 211.730469 333.050781 211.730469 C 340.5625 211.730469 342.175781 211.445312 342.175781 210.304688 C 342.175781 209.167969 340.5625 208.882812 333.050781 208.882812 C 324.78125 208.882812 323.925781 208.691406 323.453125 206.984375 C 323.167969 205.9375 322.121094 205.082031 321.171875 205.082031 C 319.648438 205.082031 319.363281 204.324219 319.363281 200.429688 L 319.363281 195.777344 L 327.824219 195.113281 C 332.480469 194.734375 337.613281 194.734375 339.230469 195.113281 C 340.75 195.398438 342.9375 195.207031 344.078125 194.636719 C 345.882812 193.6875 346.074219 192.835938 345.789062 186.28125 L 345.503906 178.972656 L 319.269531 178.6875 C 304.917969 178.589844 292.847656 178.78125 292.464844 179.160156 Z M 325.066406 186.566406 L 325.066406 191.789062 L 294.652344 191.789062 L 294.652344 187.230469 C 294.652344 184.667969 294.9375 182.292969 295.316406 182.007812 C 295.601562 181.628906 302.445312 181.34375 310.527344 181.34375 L 325.066406 181.34375 Z M 332.480469 186.757812 C 332.101562 188.847656 330.390625 188.65625 330.011719 186.664062 C 329.820312 185.710938 330.296875 185.144531 331.246094 185.144531 C 332.195312 185.144531 332.671875 185.808594 332.480469 186.757812 Z M 339.609375 186.566406 C 339.707031 187.042969 339.039062 187.613281 338.183594 187.800781 C 337.140625 187.992188 336.472656 187.515625 336.472656 186.566406 C 336.472656 184.953125 339.324219 184.859375 339.609375 186.566406 Z M 320.316406 210.304688 C 320.316406 212.300781 319.839844 212.679688 317.464844 212.679688 C 315.089844 212.679688 314.613281 212.300781 314.613281 210.304688 C 314.613281 208.3125 315.089844 207.933594 317.464844 207.933594 C 319.839844 207.933594 320.316406 208.3125 320.316406 210.304688 Z M 320.316406 210.304688 " fill-opacity="1" fill-rule="nonzero"/><path fill="#000000" d="M 298.453125 184.667969 C 298.453125 185.808594 300.164062 186.09375 308.433594 186.09375 C 316.703125 186.09375 318.414062 185.808594 318.414062 184.667969 C 318.414062 183.527344 316.703125 183.242188 308.433594 183.242188 C 300.164062 183.242188 298.453125 183.527344 298.453125 184.667969 Z M 298.453125 184.667969 " fill-opacity="1" fill-rule="nonzero"/><path fill="#000000" d="M 298.453125 188.464844 C 298.453125 189.605469 300.070312 189.890625 308.53125 189.890625 C 316.132812 189.890625 318.507812 189.605469 318.222656 188.65625 C 317.9375 187.898438 314.804688 187.421875 308.148438 187.230469 C 299.976562 187.042969 298.453125 187.230469 298.453125 188.464844 Z M 298.453125 188.464844 " fill-opacity="1" fill-rule="nonzero"/><path fill="#000000" d="M 364.324219 189.414062 C 360.617188 191.03125 359.285156 193.402344 359.285156 198.246094 C 359.285156 203.089844 363.371094 206.984375 368.503906 206.984375 C 377.914062 206.984375 380.671875 193.5 372.117188 189.414062 C 368.410156 187.707031 368.21875 187.707031 364.324219 189.414062 Z M 372.78125 194.734375 C 375.0625 197.675781 373.828125 201.664062 370.214844 203.375 C 368.125 204.324219 367.363281 204.132812 365.179688 202.519531 C 362.042969 200.242188 361.472656 197.203125 363.5625 194.070312 C 365.558594 190.933594 370.214844 191.21875 372.78125 194.734375 Z M 372.78125 194.734375 " fill-opacity="1" fill-rule="nonzero"/><path fill="#000000" d="M 280.964844 234.042969 C 275.453125 244.871094 266.898438 256.359375 257.679688 265.191406 C 238.574219 283.515625 216.996094 293.484375 190.761719 295.859375 C 185.15625 296.335938 183.445312 296.808594 183.445312 297.949219 C 183.445312 299.183594 184.777344 299.277344 192.757812 298.804688 C 202.738281 298.140625 216.996094 294.71875 225.171875 291.015625 C 227.929688 289.6875 230.589844 288.644531 231.066406 288.644531 C 231.539062 288.644531 231.917969 299.5625 231.917969 312.855469 L 231.917969 336.976562 L 207.113281 337.261719 L 182.398438 337.546875 L 180.972656 334.507812 C 179.546875 331.5625 174.796875 328.523438 171.5625 328.523438 C 169.1875 328.523438 164.71875 331.089844 163.105469 333.460938 C 158.730469 339.730469 164.054688 349.414062 171.847656 349.414062 C 176.03125 349.414062 180.972656 346.1875 182.019531 342.765625 C 182.589844 340.964844 183.730469 340.867188 216.710938 340.867188 C 250.074219 340.867188 250.835938 340.867188 251.40625 342.765625 C 251.785156 343.8125 253.304688 345.332031 254.921875 346.1875 C 262.621094 350.175781 269.65625 340.867188 264.140625 333.84375 C 260.816406 329.664062 252.546875 330.898438 250.835938 335.929688 C 250.644531 336.5 247.128906 337.070312 242.851562 337.164062 L 235.246094 337.355469 L 234.960938 312.191406 L 234.769531 286.933594 L 244.277344 280.667969 C 253.78125 274.304688 266.421875 262.625 270.890625 256.074219 L 273.265625 252.5625 L 315.46875 252.5625 L 315.753906 265.570312 L 316.039062 278.671875 L 327.253906 278.671875 C 341.320312 278.671875 342.84375 276.867188 329.15625 276.488281 L 319.363281 276.203125 L 319.363281 252.5625 L 338.183594 252.5625 L 339.992188 256.074219 C 343.601562 263.574219 352.824219 264.90625 359 258.734375 C 361.566406 256.167969 362.136719 254.839844 362.136719 251.707031 C 362.136719 244.109375 357.480469 239.265625 350.257812 239.265625 C 345.503906 239.265625 341.796875 241.449219 339.894531 245.4375 L 338.28125 248.761719 L 276.402344 248.761719 L 278.398438 245.628906 C 282.390625 239.648438 287.144531 229.582031 286.667969 228.253906 C 285.71875 225.785156 284.671875 226.921875 280.964844 234.042969 Z M 354.4375 243.539062 C 358.429688 245.535156 359.761719 249.523438 358.050781 253.796875 C 354.914062 261.203125 345.597656 261.203125 342.558594 253.890625 C 341.320312 250.945312 341.320312 250.1875 342.652344 247.433594 C 345.027344 242.496094 349.496094 240.976562 354.4375 243.539062 Z M 176.601562 334.222656 C 179.453125 336.878906 179.359375 341.25 176.316406 344.191406 C 173.464844 347.136719 170.992188 347.230469 167.667969 344.382812 C 165.765625 342.765625 165.101562 341.25 165.101562 338.96875 C 165.101562 333.082031 172.230469 330.136719 176.601562 334.222656 Z M 261.574219 335.835938 C 263.761719 337.828125 263.761719 340.109375 261.386719 342.292969 C 257.109375 346.089844 251.40625 340.394531 255.207031 336.121094 C 257.296875 333.84375 259.292969 333.746094 261.574219 335.835938 Z M 261.574219 335.835938 " fill-opacity="1" fill-rule="nonzero"/><path fill="#000000" d="M 347.59375 247.433594 C 346.167969 248.859375 346.929688 253.414062 348.734375 253.984375 C 351.871094 254.933594 353.679688 253.511719 353.394531 250.28125 C 353.203125 247.90625 352.632812 247.242188 350.730469 247.054688 C 349.402344 246.863281 347.976562 247.054688 347.59375 247.433594 Z M 347.59375 247.433594 " fill-opacity="1" fill-rule="nonzero"/><path fill="#000000" d="M 80.507812 234.234375 C 79.269531 235.375 79.839844 236.988281 83.167969 242.496094 C 84.972656 245.535156 86.496094 248.191406 86.496094 248.382812 C 86.496094 248.574219 75.945312 248.859375 63.019531 248.953125 L 39.445312 249.238281 L 39.160156 262.722656 L 38.875 276.300781 L 17.488281 276.300781 L 15.398438 273.449219 C 11.214844 267.847656 1.902344 270.695312 1.902344 277.535156 C 1.902344 281.332031 3.230469 283.421875 6.652344 284.84375 C 10.265625 286.363281 14.449219 284.84375 16.0625 281.425781 C 16.632812 280.191406 17.394531 279.148438 17.773438 279.242188 C 18.25 279.335938 23.761719 279.335938 30.226562 279.242188 L 41.820312 279.148438 L 41.820312 252.5625 L 90.011719 252.5625 L 92.671875 256.359375 C 96.855469 262.339844 111.015625 275.351562 119.097656 280.574219 L 126.320312 285.320312 L 126.414062 317.699219 L 126.414062 349.984375 L 122.804688 351.597656 C 118.527344 353.496094 115.675781 357.867188 115.675781 362.707031 C 115.675781 372.488281 126.128906 378.1875 134.113281 372.867188 C 138.488281 369.925781 139.914062 366.980469 139.4375 361.472656 C 138.960938 356.441406 135.636719 351.882812 131.546875 350.933594 L 129.265625 350.363281 L 129.265625 319.027344 C 129.265625 301.746094 129.457031 287.695312 129.742188 287.695312 C 129.933594 287.695312 132.59375 288.738281 135.539062 290.066406 C 141.625 292.726562 143.523438 293.011719 143.523438 291.113281 C 143.523438 290.449219 139.152344 287.695312 133.828125 285.128906 C 116.148438 276.585938 101.039062 263.195312 89.632812 246.199219 C 86.398438 241.449219 83.546875 236.609375 83.167969 235.5625 C 82.597656 233.570312 81.648438 233.09375 80.507812 234.234375 Z M 12.167969 274.589844 C 13.6875 276.109375 13.59375 279.621094 11.882812 281.046875 C 10.074219 282.566406 7.605469 281.996094 6.082031 279.621094 C 3.613281 275.917969 9.03125 271.457031 12.167969 274.589844 Z M 131.929688 355.113281 C 139.816406 359.953125 136.871094 371.253906 127.746094 371.253906 C 123.375 371.253906 121.757812 370.496094 120.238281 367.359375 C 117.574219 362.328125 119.097656 357.105469 123.945312 354.730469 C 127.746094 352.832031 128.222656 352.832031 131.929688 355.113281 Z M 131.929688 355.113281 " fill-opacity="1" fill-rule="nonzero"/><path fill="#000000" d="M 124.039062 359.859375 C 121.757812 362.421875 122.804688 366.316406 126.128906 367.074219 C 129.265625 367.929688 131.546875 366.507812 131.929688 363.46875 C 132.5 358.71875 127.269531 356.25 124.039062 359.859375 Z M 124.039062 359.859375 " fill-opacity="1" fill-rule="nonzero"/><path fill="#000000" d="M 280.871094 276.203125 C 273.835938 277.914062 269.371094 281.808594 266.234375 288.644531 C 261.480469 299.183594 265.949219 311.71875 276.117188 316.273438 C 281.820312 318.933594 290.28125 318.648438 295.507812 315.707031 C 299.40625 313.425781 299.785156 313.425781 301.402344 314.851562 C 302.445312 315.800781 303.207031 317.605469 303.207031 319.125 C 303.207031 321.117188 305.109375 323.492188 312.332031 330.328125 C 317.367188 335.078125 322.027344 338.96875 322.597656 338.96875 C 325.066406 338.96875 327.917969 335.929688 327.917969 333.367188 C 327.917969 331.371094 326.019531 328.902344 318.890625 321.972656 C 312.425781 315.515625 309.480469 313.238281 308.339844 313.710938 C 307.292969 314.089844 305.867188 313.523438 304.632812 312.382812 C 302.542969 310.386719 302.542969 310.292969 304.253906 307.066406 C 310.335938 295.101562 304.253906 280.574219 291.707031 276.867188 C 286.289062 275.253906 285.242188 275.160156 280.871094 276.203125 Z M 293.703125 281.523438 C 299.5 284.464844 302.542969 290.066406 302.542969 297.378906 C 302.542969 301.652344 302.066406 303.550781 300.070312 306.589844 C 293.988281 315.800781 280.109375 316.941406 272.601562 308.964844 C 259.484375 295.003906 276.59375 272.785156 293.703125 281.523438 Z M 293.703125 281.523438 " fill-opacity="1" fill-rule="nonzero"/><path fill="#000000" d="M 282.296875 283.894531 C 276.6875 285.226562 270.605469 293.484375 272.222656 297.664062 C 273.078125 300.039062 274.40625 299.277344 275.070312 296.050781 C 275.925781 291.683594 280.015625 287.789062 284.480469 287.027344 C 287.046875 286.648438 288 286.078125 287.808594 285.035156 C 287.429688 283.136719 286.382812 282.945312 282.296875 283.894531 Z M 282.296875 283.894531 " fill-opacity="1" fill-rule="nonzero"/><path fill="#000000" d="M 59.882812 283.324219 C 59.882812 287.410156 60.167969 288.453125 61.59375 288.738281 C 62.449219 288.929688 71.667969 289.023438 82.027344 288.832031 L 100.753906 288.453125 L 100.753906 278.199219 L 59.882812 278.199219 Z M 67.292969 283.707031 C 67.484375 284.371094 66.722656 284.84375 65.679688 284.84375 C 63.683594 284.84375 63.113281 283.800781 64.347656 282.566406 C 65.203125 281.710938 66.820312 282.375 67.292969 283.707031 Z M 96.761719 283.609375 C 96.378906 285.699219 94.667969 285.511719 94.289062 283.515625 C 94.097656 282.566406 94.574219 281.996094 95.523438 281.996094 C 96.476562 281.996094 96.949219 282.660156 96.761719 283.609375 Z M 96.761719 283.609375 " fill-opacity="1" fill-rule="nonzero"/><path fill="#000000" d="M 338.375 291.96875 C 338.375 293.203125 340.371094 293.390625 350.730469 293.390625 C 361.089844 293.390625 363.085938 293.203125 363.085938 291.96875 C 363.085938 290.734375 361.089844 290.542969 350.730469 290.542969 C 340.371094 290.542969 338.375 290.734375 338.375 291.96875 Z M 338.375 291.96875 " fill-opacity="1" fill-rule="nonzero"/><path fill="#000000" d="M 60.546875 292.15625 C 60.167969 292.441406 59.882812 294.816406 59.882812 297.285156 C 59.882812 300.703125 60.261719 301.746094 61.59375 302.03125 C 62.449219 302.222656 71.667969 302.316406 82.027344 302.128906 L 100.753906 301.746094 L 100.753906 291.492188 L 80.980469 291.492188 C 70.050781 291.492188 60.832031 291.777344 60.546875 292.15625 Z M 67.105469 296.335938 C 68.054688 297.949219 65.867188 299.753906 64.539062 298.421875 C 63.398438 297.285156 64.15625 295.289062 65.582031 295.289062 C 66.058594 295.289062 66.722656 295.765625 67.105469 296.335938 Z M 96.570312 296.335938 C 97.519531 297.949219 95.335938 299.753906 94.003906 298.421875 C 92.863281 297.285156 93.625 295.289062 95.050781 295.289062 C 95.523438 295.289062 96.191406 295.765625 96.570312 296.335938 Z M 96.570312 296.335938 " fill-opacity="1" fill-rule="nonzero"/><path fill="#000000" d="M 338.375 297.664062 C 338.375 298.804688 339.707031 299.089844 344.554688 299.089844 C 349.402344 299.089844 350.730469 298.804688 350.730469 297.664062 C 350.730469 296.523438 349.402344 296.238281 344.554688 296.238281 C 339.707031 296.238281 338.375 296.523438 338.375 297.664062 Z M 338.375 297.664062 " fill-opacity="1" fill-rule="nonzero"/><path fill="#000000" d="M 354.535156 297.570312 C 354.535156 298.707031 355.675781 299.089844 359.378906 299.089844 C 365.652344 299.089844 365.273438 296.808594 359 296.429688 C 355.484375 296.238281 354.535156 296.429688 354.535156 297.570312 Z M 354.535156 297.570312 " fill-opacity="1" fill-rule="nonzero"/><path fill="#000000" d="M 60.261719 306.113281 C 59.976562 306.78125 59.882812 309.25 60.070312 311.527344 L 60.355469 315.707031 L 77.464844 315.992188 C 86.875 316.179688 96 315.992188 97.710938 315.707031 C 100.847656 315.136719 100.847656 315.136719 100.5625 310.199219 L 100.277344 305.261719 L 80.507812 304.976562 C 64.253906 304.785156 60.738281 304.976562 60.261719 306.113281 Z M 67.105469 309.628906 C 68.054688 311.242188 65.867188 313.046875 64.539062 311.71875 C 63.398438 310.578125 64.15625 308.582031 65.582031 308.582031 C 66.058594 308.582031 66.722656 309.058594 67.105469 309.628906 Z M 96.570312 309.628906 C 97.519531 311.242188 95.335938 313.046875 94.003906 311.71875 C 92.863281 310.578125 93.625 308.582031 95.050781 308.582031 C 95.523438 308.582031 96.191406 309.058594 96.570312 309.628906 Z M 96.570312 309.628906 " fill-opacity="1" fill-rule="nonzero"/><path fill="#000000" d="M 60.261719 319.410156 C 59.976562 320.074219 59.882812 322.730469 60.070312 325.296875 L 60.355469 329.949219 L 100.277344 329.949219 L 100.277344 318.554688 L 80.507812 318.269531 C 64.347656 318.078125 60.738281 318.269531 60.261719 319.410156 Z M 82.21875 324.25 C 82.21875 325.484375 81.457031 326.246094 80.125 326.433594 C 78.511719 326.71875 77.941406 326.246094 77.941406 324.917969 C 77.941406 323.964844 78.226562 322.828125 78.605469 322.449219 C 79.839844 321.210938 82.21875 322.351562 82.21875 324.25 Z M 82.21875 324.25 " fill-opacity="1" fill-rule="nonzero"/><path fill="#000000" d="M 207.398438 359.101562 C 207.683594 359.953125 211.292969 360.429688 219.847656 360.617188 C 230.210938 360.808594 231.917969 360.617188 231.917969 359.382812 C 231.917969 358.148438 230.019531 357.960938 219.46875 357.960938 C 209.964844 357.960938 207.113281 358.246094 207.398438 359.101562 Z M 207.398438 359.101562 " fill-opacity="1" fill-rule="nonzero"/><path fill="#000000" d="M 207.871094 364.324219 C 206.257812 365.9375 207.683594 366.507812 213.386719 366.507812 C 218.234375 366.507812 219.5625 366.222656 219.5625 365.082031 C 219.5625 363.941406 218.328125 363.65625 214.050781 363.65625 C 211.007812 363.65625 208.15625 363.941406 207.871094 364.324219 Z M 207.871094 364.324219 " fill-opacity="1" fill-rule="nonzero"/><path fill="#000000" d="M 223.367188 365.082031 C 223.367188 366.125 224.507812 366.507812 227.644531 366.507812 C 230.78125 366.507812 231.917969 366.125 231.917969 365.082031 C 231.917969 364.039062 230.78125 363.65625 227.644531 363.65625 C 224.507812 363.65625 223.367188 364.039062 223.367188 365.082031 Z M 223.367188 365.082031 " fill-opacity="1" fill-rule="nonzero"/></svg>